<?xml version="1.0" encoding="utf-8"?>
<!-- Generator: Adobe Illustrator 28.0.0, SVG Export Plug-In . SVG Version: 6.00 Build 0)  -->
<svg version="1.1" id="Layer_1"
	xmlns="http://www.w3.org/2000/svg"
	xmlns:xlink="http://www.w3.org/1999/xlink" x="0px" y="0px" viewBox="140 140 800 220" style="enable-background:new 0 0 1081.4 496.6;" xml:space="preserve">
	<style type="text/css">
	.st0{clip-path:url(#SVGID_00000139975337311987807130000007273711724307742115_);fill:#0B2047;}
	</style>
	<g>
		<defs>
			<rect id="SVGID_1_" x="146.1" y="145.4" width="789.9" height="205.8"/>
		</defs>
		<clipPath id="SVGID_00000021105397449183375430000005548700536476314262_">
			<use xlink:href="#SVGID_1_" style="overflow:visible;"/>
		</clipPath>
		<path style="clip-path:url(#SVGID_00000021105397449183375430000005548700536476314262_);fill:#0B2047;" d="M259.8,180.3
		c-3.5,3.6-7.7,5.3-12.8,5.3h-63.4v46.2h52.5c4.7,0,8.8,1.7,12.2,5.2c3.4,3.5,5.1,7.6,5.1,12.3c0,4.7-1.7,8.8-5.1,12.2
		c-3.4,3.4-7.4,5.1-12.2,5.1h-52.5v65.9c0,5.3-1.8,9.8-5.5,13.4c-3.6,3.6-8.1,5.5-13.4,5.5c-5.3,0-9.7-1.8-13.3-5.5
		c-3.6-3.6-5.3-8.1-5.3-13.4V167.5c0-4.9,1.7-9.2,5.2-12.7c3.5-3.6,7.7-5.3,12.6-5.3H247c5.1,0,9.4,1.8,12.8,5.3
		c3.5,3.6,5.2,7.8,5.2,12.7C265,172.5,263.3,176.7,259.8,180.3"/>
		<path style="clip-path:url(#SVGID_00000021105397449183375430000005548700536476314262_);fill:#0B2047;" d="M323.2,180.5
		c-4,3.9-8.8,5.9-14.5,5.9c-5.8,0-10.8-2-14.8-5.9c-4-3.9-6-8.8-6-14.6s2-10.7,6-14.6c4-3.9,8.9-5.9,14.8-5.9c5.6,0,10.5,2,14.5,5.9
		c4,3.9,6,8.8,6,14.6S327.2,176.6,323.2,180.5 M321.7,345.1c-3.6,3.6-7.9,5.3-13,5.3c-5.3,0-9.7-1.8-13.3-5.3
		c-3.6-3.6-5.3-7.9-5.3-13V223.6c0-5.1,1.8-9.5,5.3-13.1c3.6-3.6,8-5.5,13.3-5.5c5.1,0,9.4,1.8,13,5.5c3.6,3.6,5.3,8,5.3,13.1v108.5
		C327.1,337.2,325.3,341.5,321.7,345.1"/>
		<path style="clip-path:url(#SVGID_00000021105397449183375430000005548700536476314262_);fill:#0B2047;" d="M554.9,345.1
		c-3.6,3.6-7.9,5.3-13,5.3c-5.3,0-9.7-1.8-13.3-5.3c-3.6-3.6-5.3-7.9-5.3-13V261c0-2.7-0.2-5.4-0.7-8.1c-0.5-2.6-1.4-4.9-2.7-6.8
		c-1.4-1.9-3.3-3.5-5.7-4.6c-2.5-1.2-5.7-1.8-9.7-1.8c-5.1,0-9.5,1.1-13.3,3.1c-3.7,2.1-6.8,4.8-9.2,8.1c0,0.9,0,1.8,0.1,2.7
		c0.1,0.9,0.1,1.8,0.1,2.7v75.7c0,5.1-1.8,9.4-5.5,13s-8,5.3-13.1,5.3c-5.1,0-9.4-1.8-13-5.3c-3.6-3.6-5.3-7.9-5.3-13V261
		c0-2.7-0.3-5.4-0.8-8.1c-0.6-2.6-1.5-4.9-2.9-6.8c-1.4-1.9-3.3-3.5-5.7-4.6c-2.5-1.2-5.7-1.8-9.7-1.8c-4.7,0-9,1-12.7,2.9
		c-3.7,1.9-6.9,4.5-9.4,7.8v81.7c0,5.1-1.8,9.4-5.3,13c-3.6,3.6-7.9,5.3-13,5.3c-5.3,0-9.7-1.8-13.3-5.3c-3.6-3.6-5.3-7.9-5.3-13
		v-83.9c0-4.7-0.8-8-2.5-9.8c-1.6-1.8-3.6-3.7-5.7-5.7c-1.5-1.1-2.6-2.5-3.6-4.2c-0.9-1.7-1.4-3.9-1.4-6.4c0-5.3,1.7-9.1,5.2-11.5
		c3.5-2.4,7.8-3.6,13.1-3.6c6.2,0,11.9,1.9,17.2,5.7c2.7,2,4.8,4.2,6.3,6.6c4.7-4.4,10.5-7.8,17.2-10.4c6.7-2.5,14.5-3.8,23.2-3.8
		c9.1,0,16.6,1.4,22.4,4.1c5.8,2.7,10.6,6.6,14.2,11.5c4.7-4.9,10.5-8.7,17.4-11.5c6.8-2.7,14.9-4.1,24.2-4.1
		c8.6,0,15.8,1.2,21.6,3.7c5.8,2.5,10.5,5.9,14.1,10.4c3.6,4.5,6.1,9.9,7.7,16.3c1.6,6.4,2.3,13.4,2.3,21v75.7
		C560.2,337.2,558.4,341.5,554.9,345.1"/>
		<path style="clip-path:url(#SVGID_00000021105397449183375430000005548700536476314262_);fill:#0B2047;" d="M640.2,346.8
		c-3.6,2.4-8,3.6-13.3,3.6c-2.9,0-5.9-0.5-8.9-1.5c-3-1-5.8-2.5-8.3-4.5c-4.2-3.1-7.7-7.3-10.4-12.6c-2.7-5.3-4.1-11.8-4.1-19.4
		V169.2c0-5.1,1.8-9.4,5.5-13c3.6-3.6,8-5.3,13.1-5.3c5.1,0,9.4,1.8,13,5.3c3.6,3.6,5.3,7.9,5.3,13v139.9c0,4.7,0.8,8,2.5,9.8
		c1.6,1.8,3.6,3.6,5.7,5.5c1.5,1.1,2.7,2.6,3.7,4.4c1,1.8,1.5,4,1.5,6.6C645.5,340.7,643.7,344.5,640.2,346.8"/>
		<path style="clip-path:url(#SVGID_00000021105397449183375430000005548700536476314262_);fill:#0B2047;" d="M786.1,346.8
		c-3.4,2.4-7.9,3.6-13.5,3.6c-3.6,0-6.9-0.6-9.8-1.8c-2.9-1.2-5.3-2.5-7.1-4c-1.8-1.3-3.6-3.2-5.5-5.7c-5.3,4.6-11.3,7.6-18.2,9.2
		c-6.8,1.5-13.3,2.3-19.3,2.3c-16.6,0-28.9-3.9-37-11.6c-8.1-7.7-12.2-18.1-12.2-31v-1.9c0-12.9,4.6-23.1,13.8-30.5
		c9.2-7.4,22.6-11.1,40.3-11.1H742v-5.2c0-8-1.4-14.2-4.1-18.4c-2.7-4.3-8.3-6.4-16.7-6.4c-5.8,0-10.6,0.6-14.3,1.8
		c-3.7,1.2-7.2,2.6-10.2,4.2c-4.6,2.4-8.7,2.9-12.4,1.5c-3.7-1.4-6.6-3.6-8.5-6.6c-1.9-3-2.6-6.4-2.1-10.2c0.5-3.8,2.9-7.1,7.1-9.8
		c5.8-3.8,12.7-6.5,20.6-7.9c7.9-1.5,15.5-2.2,22.8-2.2c9.8,0,18.2,1.1,25.1,3.4c6.9,2.3,12.6,5.8,16.9,10.5
		c4.4,4.7,7.6,10.8,9.6,18.2c2,7.4,3,16.2,3,26.4v45.6c0,4.7,0.7,8,2,9.8c1.4,1.8,3.1,3.6,5.1,5.5c1.5,1.3,2.7,2.8,3.7,4.5
		c1,1.7,1.5,3.9,1.5,6.4C791.2,340.7,789.5,344.5,786.1,346.8 M742,290.8h-20c-8.2,0-13.9,1.5-17.1,4.4c-3.2,2.9-4.8,6.7-4.8,11.2
		v1.9c0,5.1,1.6,9,4.9,11.8c3.3,2.7,8.5,4.1,15.6,4.1c6.4,0,11.5-1.7,15.4-5.2c3.9-3.5,5.9-8.8,5.9-16.1V290.8z"/>
		<path style="clip-path:url(#SVGID_00000021105397449183375430000005548700536476314262_);fill:#0B2047;" d="M923.2,335.1
		c-8.6,10.2-21.8,15.3-39.6,15.3c-6.4,0-12.6-1-18.7-2.9c-6.1-1.9-11.4-4.5-16-7.8c-0.7,0.9-1.5,1.7-2.3,2.5
		c-0.8,0.7-1.7,1.5-2.6,2.2c-2.6,2-5.3,3.5-8.3,4.5c-3,1-6,1.5-8.9,1.5c-5.3,0-9.7-1.2-13.1-3.6c-3.5-2.4-5.2-6.2-5.2-11.5
		c0-2.5,0.5-4.7,1.4-6.6s2.1-3.3,3.6-4.4c2.2-1.8,3.9-3.6,5.2-5.5c1.3-1.8,1.9-5.1,1.9-9.8V169.2c0-5.1,1.8-9.4,5.5-13
		c3.6-3.6,8-5.3,13.1-5.3c5.1,0,9.4,1.8,13,5.3c3.6,3.6,5.3,7.9,5.3,13v46.5c3.6-2.9,8.2-5.4,13.5-7.5c5.4-2.1,11.1-3.1,17.1-3.1
		c9.3,0,17,1.4,23.2,4.2c6.2,2.8,11.2,6.9,14.9,12.3c3.7,5.4,6.3,12,7.8,19.8c1.5,7.8,2.2,16.8,2.2,26.8v23.2
		C936,310.3,931.7,324.9,923.2,335.1 M899.4,262.1c0-8.4-1.6-14.8-4.6-19.3c-3.1-4.5-8.6-6.7-16.4-6.7c-3.6,0-7.3,0.8-11.1,2.5
		c-3.7,1.6-7.1,3.9-10,6.8v66.7c2.9,2.2,6.1,3.9,9.6,5.2c3.5,1.3,6.9,1.9,10.4,1.9c7.8,0,13.5-2.1,16.9-6.3
		c3.5-4.2,5.2-10.4,5.2-18.6V262.1z"/>
	</g>
</svg>
