<svg version="1.1" class="Layer_1"
    xmlns="http://www.w3.org/2000/svg"
    xmlns:xlink="http://www.w3.org/1999/xlink" x="0px" y="0px" viewBox="0 0 1920 760.009" style="enable-background:new 0 0 1920 760.009;" xml:space="preserve">
    <g>
        <polygon style="fill:#3C2B7C;" fill="#3C2B7C" points="321.142,9.373 233.628,268.789 146.114,9.373 0,9.373 160.961,418.808 304.735,418.808
		465.696,9.373 	"></polygon>
        <g>
            <path style="fill:#3C2B7C;" fill="#3C2B7C" d="M694.063,291.446c-17.975,22.659-55.481,40.63-93.767,40.63c-33.597,0-51.568-10.938-51.568-33.597
			c0-21.879,17.971-33.597,54.692-44.539l90.642-27.348V291.446z M830.8,418.81V154.709c0-106.269-58.601-154.712-175.807-154.712
			c-71.887,0-135.957,17.191-182.06,52.352l-17.971,128.924c43.755-37.506,118.77-69.539,176.591-69.539
			c49.223,0,62.51,13.282,62.51,38.286v7.033L584.67,178.149c-95.327,18.755-171.903,40.63-171.903,125.019
			c0,75.012,44.539,125.019,125.799,125.019c88.298,0,137.521-52.352,155.496-96.891v87.514H830.8z"></path>
            <path style="fill:#3C2B7C;" fill="#3C2B7C" d="M1008.842,418.81V199.244c48.443-25.784,109.393-39.846,165.65-51.568L1150.268,1.562
			c-61.725,24.22-122.675,67.194-141.426,169.554V9.375H872.885V418.81H1008.842z"></path>
            <path style="fill:#009F8D;" fill="#009F8D" d="M1469.008,750.633V494.345c0-96.891-47.663-162.525-146.115-162.525
			c-82.825,0-121.115,42.195-135.961,120.331V188.775c-45.289,9.471-93.2,20.507-135.957,37.331v524.527h135.957V482.624
			c14.066-21.879,41.415-32.817,72.667-32.817c45.323,0,73.452,26.568,73.452,71.887v228.939H1469.008z"></path>
            <path style="fill:#009F8D;" fill="#009F8D" d="M1783.258,623.269c-17.971,22.659-55.477,40.63-93.762,40.63
			c-33.597,0-51.572-10.938-51.572-33.597c0-21.879,17.975-33.597,54.697-44.539l90.638-27.348V623.269z M1919.999,750.633V486.532
			c0-106.269-58.601-154.712-175.807-154.712c-71.887,0-135.957,17.191-182.06,52.352l-17.971,128.924
			c43.759-37.506,118.766-69.543,176.587-69.543c49.228,0,62.51,13.286,62.51,38.29v7.033l-109.389,21.095
			c-95.327,18.751-171.903,40.63-171.903,125.019c0,75.012,44.539,125.019,125.799,125.019c88.298,0,137.521-52.352,155.492-96.891
			v87.514H1919.999z"></path>
        </g>
    </g>
</svg>
