<svg xmlns="http://www.w3.org/2000/svg" xmlns:xlink="http://www.w3.org/1999/xlink" data-name="Layer 2" viewBox="0 0 273.807 465.033"><defs><radialGradient id="c" cx="2888.276" cy="-1957.125" r="11.198" fx="2888.276" fy="-1957.125" gradientTransform="translate(2745.729878236 -2491.934303521) rotate(94.849689482) scale(1 -1.276701593)" gradientUnits="userSpaceOnUse"><stop offset=".245" stop-color="#fdf5fb"/><stop offset=".657" stop-color="#fcf2f8"/><stop offset=".898" stop-color="#f9eaf1"/><stop offset="1" stop-color="#f7e4ec"/></radialGradient><radialGradient id="d" cx="3041.517" cy="-1786.935" r="9.779" fx="3041.517" fy="-1786.935" gradientTransform="translate(1968.954995975 -2713.516740684) rotate(90.000000003) scale(1 -1)" gradientUnits="userSpaceOnUse"><stop offset=".255" stop-color="#fdf5fb"/><stop offset=".662" stop-color="#fcf2f8"/><stop offset=".9" stop-color="#f9eaf1"/><stop offset="1" stop-color="#f7e4ec"/></radialGradient><radialGradient id="e" cx="2804.004" cy="-1776.455" r="10.32" fx="2804.004" fy="-1776.455" gradientTransform="translate(1689.848805459 -2713.516740696) rotate(90.000000003) scale(1 -.842885855)" gradientUnits="userSpaceOnUse"><stop offset=".284" stop-color="#fdf5fb"/><stop offset=".675" stop-color="#fcf2f8"/><stop offset=".903" stop-color="#f9eaf1"/><stop offset="1" stop-color="#f7e4ec"/></radialGradient><radialGradient id="a" cx="2744.285" cy="-1842.104" r="11.366" fx="2744.285" fy="-1842.104" gradientTransform="translate(1968.954995975 -2713.516740684) rotate(90.000000003) scale(1 -1)" gradientUnits="userSpaceOnUse"><stop offset=".009" stop-color="#fdf5fb"/><stop offset=".551" stop-color="#fcf2f8"/><stop offset=".866" stop-color="#f9eaf1"/><stop offset="1" stop-color="#f7e4ec"/></radialGradient><radialGradient id="h" cx="3001.999" cy="-1850.317" r="12.818" fx="3001.999" fy="-1850.317" gradientTransform="translate(2069.894895978 -2713.516740679) rotate(90.000000003) scale(1 -1.054552762)" gradientUnits="userSpaceOnUse"><stop offset=".071" stop-color="#fdf5fb"/><stop offset=".578" stop-color="#fcf2f8"/><stop offset=".875" stop-color="#f9eaf1"/><stop offset="1" stop-color="#f7e4ec"/></radialGradient><radialGradient id="i" cx="2964.957" cy="-1851.442" r="11.43" fx="2964.957" fy="-1851.442" gradientTransform="translate(2163.253190843 -2713.516740675) rotate(90.000000003) scale(1 -1.104944248)" gradientUnits="userSpaceOnUse"><stop offset=".22" stop-color="#fdf5fb"/><stop offset=".646" stop-color="#fcf2f8"/><stop offset=".895" stop-color="#f9eaf1"/><stop offset="1" stop-color="#f7e4ec"/></radialGradient><radialGradient id="j" cx="2935.441" cy="-1899.951" r="12.559" fx="2929.076" fy="-1899.951" gradientTransform="translate(1648.022128923 -2713.516740698) rotate(90.000000003) scale(1 -.831083579)" gradientUnits="userSpaceOnUse"><stop offset=".318" stop-color="#fdf5fb"/><stop offset=".691" stop-color="#fcf2f8"/><stop offset=".908" stop-color="#f9eaf1"/><stop offset="1" stop-color="#f7e4ec"/></radialGradient><radialGradient id="k" cx="3015.006" cy="-1817.07" r="11.29" fx="3015.006" fy="-1817.07" gradientTransform="translate(2225.01257968 -2713.516740672) rotate(90.000000003) scale(1 -1.140917872)" gradientUnits="userSpaceOnUse"><stop offset=".265" stop-color="#fdf5fb"/><stop offset=".667" stop-color="#fcf2f8"/><stop offset=".901" stop-color="#f9eaf1"/><stop offset="1" stop-color="#f7e4ec"/></radialGradient><radialGradient id="l" cx="2879.842" cy="-1828.272" r="10.015" fx="2879.842" fy="-1828.272" gradientTransform="translate(1968.954995975 -2713.516740684) rotate(90.000000003) scale(1 -1)" gradientUnits="userSpaceOnUse"><stop offset=".154" stop-color="#fdf5fb"/><stop offset=".616" stop-color="#fcf2f8"/><stop offset=".886" stop-color="#f9eaf1"/><stop offset="1" stop-color="#f7e4ec"/></radialGradient><radialGradient id="m" cx="2870.801" cy="-1848.673" r="11.4" fx="2870.801" fy="-1848.673" gradientTransform="translate(1968.954995975 -2713.516740684) rotate(90.000000003) scale(1 -1)" gradientUnits="userSpaceOnUse"><stop offset=".333" stop-color="#fdf5fb"/><stop offset=".698" stop-color="#fcf2f8"/><stop offset=".91" stop-color="#f9eaf1"/><stop offset="1" stop-color="#f7e4ec"/></radialGradient><radialGradient xlink:href="#a" id="n" cx="2721.058" cy="-1825.891" r="11.44" fx="2721.058" fy="-1825.891"/><radialGradient id="o" cx="2793.144" cy="-1795.574" r="10.951" fx="2793.144" fy="-1795.574" gradientTransform="translate(1901.706409772 -2713.516740687) rotate(90.000000003) scale(1 -.962547586)" gradientUnits="userSpaceOnUse"><stop offset=".276" stop-color="#fdf5fb"/><stop offset=".671" stop-color="#fcf2f8"/><stop offset=".902" stop-color="#f9eaf1"/><stop offset="1" stop-color="#f7e4ec"/></radialGradient><radialGradient xlink:href="#a" id="p" cx="3029.647" cy="-1831.033" r="10.04" fx="3029.647" fy="-1831.033" gradientTransform="translate(2118.836016277 -2713.516740677) rotate(90.000000003) scale(1 -1.081855998)"/><radialGradient xlink:href="#a" id="q" cx="3059.674" cy="-1781.781" r="9.992" fx="3059.674" fy="-1781.781" gradientTransform="translate(2198.098751565 -2713.516740674) rotate(90.000000003) scale(1 -1.128603766)"/><radialGradient id="r" cx="2761.444" cy="-1910.62" r="10.255" fx="2761.444" fy="-1910.62" gradientTransform="translate(1968.954995975 -2713.516740684) rotate(90.000000003) scale(1 -1)" gradientUnits="userSpaceOnUse"><stop offset=".248" stop-color="#fdf5fb"/><stop offset=".659" stop-color="#fcf2f8"/><stop offset=".899" stop-color="#f9eaf1"/><stop offset="1" stop-color="#f7e4ec"/></radialGradient><radialGradient id="s" cx="3016.5" cy="-1934.299" r="9.03" fx="3016.5" fy="-1934.299" gradientTransform="translate(2309.971932021 -2713.516740669) rotate(90.000000003) scale(1 -1.176300002)" gradientUnits="userSpaceOnUse"><stop offset=".095" stop-color="#fdf5fb"/><stop offset=".589" stop-color="#fcf2f8"/><stop offset=".878" stop-color="#f9eaf1"/><stop offset="1" stop-color="#f7e4ec"/></radialGradient><radialGradient id="f" cx="2718.406" cy="-1803.859" r="12.564" fx="2718.406" fy="-1803.859" gradientTransform="translate(1676.465566703 -2713.516740697) rotate(90.000000003) scale(1 -.837853536)" gradientUnits="userSpaceOnUse"><stop offset=".142" stop-color="#fdf5fb"/><stop offset=".575" stop-color="#fcf2f8"/><stop offset=".827" stop-color="#f9eaf1"/><stop offset=".934" stop-color="#f7e4ec"/></radialGradient><radialGradient id="t" cx="2861.481" cy="-1711.406" r="11.125" fx="2861.481" fy="-1711.406" gradientTransform="translate(1968.954995975 -2713.516740684) rotate(90.000000003) scale(1 -1)" gradientUnits="userSpaceOnUse"><stop offset=".255" stop-color="#fdf5fb"/><stop offset=".662" stop-color="#fcf2f8"/><stop offset=".9" stop-color="#f9eaf1"/><stop offset="1" stop-color="#f7e4ec"/></radialGradient><radialGradient xlink:href="#a" id="u" cx="2952.22" cy="-1914.054" r="9.884" fx="2952.22" fy="-1914.054" gradientTransform="translate(1766.09007853 -2713.516740693) rotate(90.000000003) scale(1 -.894012986)"/><radialGradient xlink:href="#a" id="v" cx="2762.605" cy="-1936.645" r="8.319" fx="2762.605" fy="-1936.645" gradientTransform="translate(2181.972035922 -2713.516740674) rotate(90.000000003) scale(1 -1.10999282)"/><radialGradient id="w" cx="2814.597" cy="-1881.748" r="10.417" fx="2814.597" fy="-1881.748" gradientTransform="translate(1968.954995975 -2713.516740684) rotate(90.000000003) scale(1 -1)" gradientUnits="userSpaceOnUse"><stop offset=".239" stop-color="#fdf5fb"/><stop offset=".655" stop-color="#fcf2f8"/><stop offset=".897" stop-color="#f9eaf1"/><stop offset="1" stop-color="#f7e4ec"/></radialGradient><radialGradient id="x" cx="3065.568" cy="-1716.843" r="10.862" fx="3065.568" fy="-1716.843" gradientTransform="translate(1983.081483939 -2713.516740683) rotate(90.000000003) scale(1 -1.008228179)" gradientUnits="userSpaceOnUse"><stop offset=".136" stop-color="#fdf5fb"/><stop offset=".608" stop-color="#fcf2f8"/><stop offset=".884" stop-color="#f9eaf1"/><stop offset="1" stop-color="#f7e4ec"/></radialGradient><radialGradient id="y" cx="2797.394" cy="-1892.021" r="10.81" fx="2797.394" fy="-1892.021" gradientTransform="translate(1825.848922176 -2713.51674069) rotate(90.000000003) scale(1 -.924363366)" gradientUnits="userSpaceOnUse"><stop offset=".253" stop-color="#fdf5fb"/><stop offset=".661" stop-color="#fcf2f8"/><stop offset=".899" stop-color="#f9eaf1"/><stop offset="1" stop-color="#f7e4ec"/></radialGradient><radialGradient id="z" cx="2820.762" cy="-1918.915" r="8.171" fx="2820.762" fy="-1918.915" gradientTransform="translate(2117.924940611 -2944.012287123) rotate(84.057253936) scale(1 -1.23647095)" gradientUnits="userSpaceOnUse"><stop offset=".146" stop-color="#fdf5fb"/><stop offset=".613" stop-color="#fcf2f8"/><stop offset=".885" stop-color="#f9eaf1"/><stop offset="1" stop-color="#f7e4ec"/></radialGradient><radialGradient xlink:href="#a" id="A" cx="2865.729" cy="-1925.599" r="8.18" fx="2865.729" fy="-1925.599"/><radialGradient xlink:href="#a" id="B" cx="2827.905" cy="-1847.546" r="9.837" fx="2827.905" fy="-1847.546" gradientTransform="translate(1741.57393543 -2713.516740694) rotate(90.000000003) scale(1 -.876928089)"/><radialGradient id="C" cx="2780.531" cy="-1828.102" r="9.216" fx="2780.531" fy="-1828.102" gradientTransform="translate(1968.954995975 -2713.516740684) rotate(90.000000003) scale(1 -1)" gradientUnits="userSpaceOnUse"><stop offset=".091" stop-color="#fdf5fb"/><stop offset=".587" stop-color="#fcf2f8"/><stop offset=".877" stop-color="#f9eaf1"/><stop offset="1" stop-color="#f7e4ec"/></radialGradient><radialGradient xlink:href="#a" id="D" cx="2848.9" cy="-1929.523" r="8.112" fx="2848.9" fy="-1929.523" gradientTransform="translate(2352.475988554 -2713.516740667) rotate(90.000000003) scale(1 -1.198764697)"/><radialGradient id="E" cx="2788.373" cy="-1842.387" r="8.807" fx="2788.373" fy="-1842.387" gradientTransform="translate(1748.28162159 -2713.516740694) rotate(90.000000003) scale(1 -.880224181)" gradientUnits="userSpaceOnUse"><stop offset=".146" stop-color="#fdf5fb"/><stop offset=".612" stop-color="#fcf2f8"/><stop offset=".885" stop-color="#f9eaf1"/><stop offset="1" stop-color="#f7e4ec"/></radialGradient><radialGradient xlink:href="#a" id="F" cx="3069.563" cy="-1884.634" r="9.853" fx="3069.563" fy="-1884.634"/><radialGradient id="G" cx="2785.182" cy="-1746.965" r="8.849" fx="2785.182" fy="-1746.965" gradientTransform="translate(1968.954995975 -2713.516740684) rotate(90.000000003) scale(1 -1)" gradientUnits="userSpaceOnUse"><stop offset=".168" stop-color="#fdf5fb"/><stop offset=".622" stop-color="#fcf2f8"/><stop offset=".888" stop-color="#f9eaf1"/><stop offset="1" stop-color="#f7e4ec"/></radialGradient><radialGradient id="H" cx="2843.664" cy="-1701.593" r="8.544" fx="2843.664" fy="-1701.593" gradientTransform="translate(1968.954995975 -2713.516740684) rotate(90.000000003) scale(1 -1)" gradientUnits="userSpaceOnUse"><stop offset=".21" stop-color="#fdf5fb"/><stop offset=".642" stop-color="#fcf2f8"/><stop offset=".894" stop-color="#f9eaf1"/><stop offset="1" stop-color="#f7e4ec"/></radialGradient><radialGradient id="I" cx="2989.439" cy="-1892.694" r="9.675" fx="2989.439" fy="-1892.694" gradientTransform="translate(1968.954995975 -2713.516740684) rotate(90.000000003) scale(1 -1)" gradientUnits="userSpaceOnUse"><stop offset=".212" stop-color="#fdf5fb"/><stop offset=".642" stop-color="#fcf2f8"/><stop offset=".894" stop-color="#f9eaf1"/><stop offset="1" stop-color="#f7e4ec"/></radialGradient><radialGradient xlink:href="#a" id="J" cx="3006.81" cy="-1896.345" r="9.53" fx="3006.81" fy="-1896.345"/><radialGradient id="K" cx="2865.595" cy="-1728.326" r="7.971" fx="2865.595" fy="-1728.326" gradientTransform="translate(2218.446570583 -2713.516740673) rotate(90.000000003) scale(1 -1.144354442)" gradientUnits="userSpaceOnUse"><stop offset=".328" stop-color="#fdf5fb"/><stop offset=".695" stop-color="#fcf2f8"/><stop offset=".909" stop-color="#f9eaf1"/><stop offset="1" stop-color="#f7e4ec"/></radialGradient><radialGradient id="L" cx="2749.679" cy="-1919.585" r="7.326" fx="2749.679" fy="-1919.585" gradientTransform="translate(1968.954995975 -2713.516740684) rotate(90.000000003) scale(1 -1)" gradientUnits="userSpaceOnUse"><stop offset=".174" stop-color="#fdf5fb"/><stop offset=".625" stop-color="#fcf2f8"/><stop offset=".889" stop-color="#f9eaf1"/><stop offset="1" stop-color="#f7e4ec"/></radialGradient><radialGradient id="M" cx="2913.914" cy="-1736.012" r="9.54" fx="2913.914" fy="-1736.012" gradientTransform="translate(2109.854529327 -2713.516740678) rotate(90.000000003) scale(1 -1.081162759)" gradientUnits="userSpaceOnUse"><stop offset=".094" stop-color="#fdf5fb"/><stop offset=".589" stop-color="#fcf2f8"/><stop offset=".878" stop-color="#f9eaf1"/><stop offset="1" stop-color="#f7e4ec"/></radialGradient><radialGradient xlink:href="#a" id="N" cx="2855.322" cy="-1909.964" r="8.637" fx="2855.322" fy="-1909.964"/><radialGradient id="O" cx="2780.509" cy="-1868.868" r="10.195" fx="2780.509" fy="-1868.868" gradientTransform="translate(1968.954995975 -2713.516740684) rotate(90.000000003) scale(1 -1)" gradientUnits="userSpaceOnUse"><stop offset=".218" stop-color="#fdf5fb"/><stop offset=".645" stop-color="#fcf2f8"/><stop offset=".895" stop-color="#f9eaf1"/><stop offset="1" stop-color="#f7e4ec"/></radialGradient><radialGradient id="P" cx="2803.001" cy="-1705.345" r="11.28" fx="2803.001" fy="-1705.345" gradientTransform="translate(1467.798738248 -2713.516740706) rotate(90.000000003) scale(1 -.70612613)" gradientUnits="userSpaceOnUse"><stop offset=".235" stop-color="#fdf5fb"/><stop offset=".653" stop-color="#fcf2f8"/><stop offset=".897" stop-color="#f9eaf1"/><stop offset="1" stop-color="#f7e4ec"/></radialGradient><radialGradient xlink:href="#a" id="Q" cx="2903.935" cy="-1960.437" r="9.601" fx="2903.935" fy="-1960.437" gradientTransform="translate(2409.902746783 -2713.516740664) rotate(90.000000003) scale(1 -1.224923234)"/><radialGradient id="R" cx="113.629" cy="338.347" r="29.053" fx="106.009" fy="318.142" gradientTransform="translate(24.115012959 45.10773877) rotate(4.778136681) scale(1 .84163252)" gradientUnits="userSpaceOnUse"><stop offset=".231" stop-color="#fbdbe8"/><stop offset=".574" stop-color="#f9d8e7"/><stop offset=".75" stop-color="#f4d0e5"/><stop offset=".887" stop-color="#ecc3e3"/><stop offset=".954" stop-color="#e6bae1"/></radialGradient><radialGradient id="S" cx="80.771" cy="29.826" r="20.513" fx="80.771" fy="15.014" gradientTransform="translate(-8.345221263 20.862582105) rotate(-19.859906564) scale(1 1.297692553)" gradientUnits="userSpaceOnUse"><stop offset=".213" stop-color="#fbdbe8"/><stop offset=".565" stop-color="#f9d8e7"/><stop offset=".745" stop-color="#f4d0e5"/><stop offset=".886" stop-color="#ecc3e3"/><stop offset=".954" stop-color="#e6bae1"/></radialGradient><radialGradient id="b" cx="44.088" cy="189.868" r="24.471" fx="44.088" fy="173.375" gradientTransform="translate(-95.734447378 96.471492819) rotate(-41.057772652) scale(1 .854613747)" gradientUnits="userSpaceOnUse"><stop offset=".125" stop-color="#fbdbe8"/><stop offset=".518" stop-color="#f9d8e7"/><stop offset=".72" stop-color="#f4d0e5"/><stop offset=".877" stop-color="#ecc3e3"/><stop offset=".954" stop-color="#e6bae1"/></radialGradient><radialGradient id="T" cx="193.751" cy="59.293" r="20.828" fx="193.751" fy="44.634" gradientTransform="translate(-11.603967946 23.933614849) rotate(-11.825052778) scale(1 1.293430819)" gradientUnits="userSpaceOnUse"><stop offset=".184" stop-color="#fbdbe8"/><stop offset=".549" stop-color="#f9d8e7"/><stop offset=".736" stop-color="#f4d0e5"/><stop offset=".883" stop-color="#ecc3e3"/><stop offset=".954" stop-color="#e6bae1"/></radialGradient><radialGradient xlink:href="#b" id="U" cx="146.232" cy="273.988" r="21.503" fx="146.232" fy="260.39" gradientTransform="translate(0 -24.219910508) scale(1 1.088397679)"/><radialGradient xlink:href="#b" id="V" cx="49.288" cy="276.555" r="19.154" fx="49.288" fy="264.599" gradientTransform="translate(-70.658595555 -95.609513424) rotate(-10.622386861) scale(1 1.402604398)"/><radialGradient id="W" cx="48.667" cy="79.077" r="21.005" fx="48.667" fy="65.48" gradientTransform="translate(0 -7.459107831) scale(1 1.0943269)" gradientUnits="userSpaceOnUse"><stop offset=".221" stop-color="#fbdbe8"/><stop offset=".569" stop-color="#f9d8e7"/><stop offset=".747" stop-color="#f4d0e5"/><stop offset=".886" stop-color="#ecc3e3"/><stop offset=".954" stop-color="#e6bae1"/></radialGradient><radialGradient xlink:href="#b" id="X" cx="174.078" cy="171.105" r="25.996" fx="166.051" fy="155.766" gradientTransform="translate(32.909343761 3.668126999) rotate(12.506708272) scale(1 .77667625)"/><radialGradient xlink:href="#b" id="Y" cx="143.079" cy="138.846" r="20.771" fx="134.92" fy="126.306" gradientTransform="translate(33.673793082 -20.185411462) rotate(13.310178425) scale(1 .933206991)"/><radialGradient id="Z" cx="248.468" cy="618.459" r="35.563" fx="240.053" fy="594.76" gradientTransform="translate(27.735174326 -25.382934985) scale(.657435098 .705788944)" gradientUnits="userSpaceOnUse"><stop offset=".234" stop-color="#fbdbe8"/><stop offset=".575" stop-color="#f9d8e7"/><stop offset=".751" stop-color="#f4d0e5"/><stop offset=".887" stop-color="#ecc3e3"/><stop offset=".954" stop-color="#e6bae1"/></radialGradient><radialGradient id="aa" cx="324.522" cy="176.087" r="38.255" fx="315.357" fy="150.251" gradientTransform="translate(27.735174326 4.521914485) scale(.657435098)" gradientUnits="userSpaceOnUse"><stop offset=".256" stop-color="#fbdbe8"/><stop offset=".587" stop-color="#f9d8e7"/><stop offset=".757" stop-color="#f4d0e5"/><stop offset=".889" stop-color="#ecc3e3"/><stop offset=".954" stop-color="#e6bae1"/></radialGradient><radialGradient id="g" cx="190.833" cy="652.599" r="35.484" fx="183.081" fy="629.036" gradientTransform="translate(27.735174326 4.521914485) scale(.657435098)" gradientUnits="userSpaceOnUse"><stop offset=".211" stop-color="#fbdbe8"/><stop offset=".564" stop-color="#f9d8e7"/><stop offset=".744" stop-color="#f4d0e5"/><stop offset=".885" stop-color="#ecc3e3"/><stop offset=".954" stop-color="#e6bae1"/></radialGradient><radialGradient xlink:href="#b" id="ab" cx="81.869" cy="586.637" r="34.571" fx="71.618" fy="565.436" gradientTransform="translate(27.735174326 4.521914485) scale(.657435098)"/><radialGradient xlink:href="#c" id="ac" cx="2956.016" cy="2154.216" r="10.443" fx="2956.016" fy="2154.216" gradientTransform="translate(2629.726480239 -2935.449054822) rotate(85.150310521) scale(1 1.276701593)"/><radialGradient xlink:href="#d" id="ad" cx="2939.76" cy="2100.154" r="9.119" fx="2939.76" fy="2100.154" gradientTransform="translate(2293.405400584 -2713.516740677) rotate(90)"/><radialGradient xlink:href="#e" id="ae" cx="3092.659" cy="2083.361" r="9.624" fx="3092.659" fy="2083.361" gradientTransform="translate(1966.07999161 -2713.516740677) rotate(90) scale(1 .842885855)"/><radialGradient xlink:href="#a" id="af" cx="3167.694" cy="2165.379" r="11.367" fx="3167.694" fy="2165.379" gradientTransform="translate(2506.93607346 -2713.516740677) rotate(90) scale(1 1.098611214)"/><radialGradient id="ag" cx="3148.043" cy="2173.183" r="10.326" fx="3148.043" fy="2173.183" gradientTransform="translate(1116.542405321 -3531.26164612) rotate(64.445257761) scale(1 1.20081389)" gradientUnits="userSpaceOnUse"><stop offset=".304" stop-color="#fdf5fb"/><stop offset=".684" stop-color="#fcf2f8"/><stop offset=".906" stop-color="#f9eaf1"/><stop offset="1" stop-color="#f7e4ec"/></radialGradient><radialGradient id="ah" cx="2954.624" cy="2032.435" r="9.762" fx="2954.624" fy="2032.435" gradientTransform="translate(2293.405400584 -2713.516740677) rotate(90)" gradientUnits="userSpaceOnUse"><stop offset=".352" stop-color="#fdf5fb"/><stop offset=".706" stop-color="#fcf2f8"/><stop offset=".913" stop-color="#f9eaf1"/><stop offset="1" stop-color="#f7e4ec"/></radialGradient><radialGradient xlink:href="#a" id="ai" cx="3106.079" cy="2071.505" r="10.629" fx="3106.079" fy="2071.505" gradientTransform="translate(2293.405400584 -2713.516740677) rotate(90)"/><radialGradient xlink:href="#a" id="aj" cx="2996.972" cy="2082.502" r="9.362" fx="2996.972" fy="2082.502" gradientTransform="translate(2463.87069645 -2713.516740677) rotate(90) scale(1 1.081855998)"/><radialGradient xlink:href="#a" id="ak" cx="3011.917" cy="2075.795" r="9.318" fx="3011.917" fy="2075.795" gradientTransform="translate(2560.360443808 -2713.516740677) rotate(90) scale(1 1.128603766)"/><radialGradient xlink:href="#f" id="al" cx="2997.678" cy="2062.77" r="11.716" fx="2997.678" fy="2062.77" gradientTransform="translate(1958.934545561 -2713.516740677) rotate(90) scale(1 .837853536)"/><radialGradient xlink:href="#a" id="am" cx="3130.663" cy="2220.997" r="9.484" fx="3130.663" fy="2220.997" gradientTransform="translate(2676.932655512 -2713.516740677) rotate(90) scale(1 1.172682504)"/><radialGradient id="an" cx="3116.587" cy="2240.094" r="10.129" fx="3116.587" fy="2240.094" gradientTransform="translate(2031.674659532 -2713.516740677) rotate(90) scale(1 .8831608)" gradientUnits="userSpaceOnUse"><stop offset=".248" stop-color="#fdf5fb"/><stop offset=".659" stop-color="#fcf2f8"/><stop offset=".899" stop-color="#f9eaf1"/><stop offset="1" stop-color="#f7e4ec"/></radialGradient><radialGradient id="ao" cx="3156.781" cy="2111.456" r="9.755" fx="3156.781" fy="2111.456" gradientTransform="translate(1907.613637525 -2713.516740677) rotate(90) scale(1 .817286355)" gradientUnits="userSpaceOnUse"><stop offset=".296" stop-color="#fdf5fb"/><stop offset=".681" stop-color="#fcf2f8"/><stop offset=".905" stop-color="#f9eaf1"/><stop offset="1" stop-color="#f7e4ec"/></radialGradient><radialGradient xlink:href="#a" id="ap" cx="3097.878" cy="2245.598" r="9.75" fx="3097.878" fy="2245.598" gradientTransform="translate(1875.993528821 -2713.516740677) rotate(90) scale(1 .814119916)"/><radialGradient xlink:href="#a" id="aq" cx="3083.458" cy="2138.681" r="8.345" fx="3083.458" fy="2138.681" gradientTransform="translate(2293.405400584 -2713.516740677) rotate(90)"/><radialGradient xlink:href="#g" id="ar" cx="248.072" cy="316.494" r="25.649" fx="248.072" fy="299.462" gradientTransform="matrix(1,0,0,1,0,0)"/></defs><g data-name="Layer 3"><path d="M10.43 185.064c3.46.566 8.108 1.452 9.632-2.316 1.03-2.764.1-6.296-1.891-8.476-4.087-4.387-14.618-5.48-17.556.715-1.018 2.278-.405 5.118 1.363 6.843 2.093 2.005 5.438 2.615 8.299 3.205z" style="fill:url(#c)"/><path d="M176.462 335.35c2.53 2.5 7.053 3.419 10.148 1.442 2.61-1.578 3.916-5.144 2.598-7.968-1.876-4.284-7.977-6.674-12.067-4.06-3.625 2.174-3.635 7.645-.781 10.48z" style="fill:url(#d)"/><path d="M199.614 96.322c1.396-5.218-2.96-11.392-8.433-11.549-4.83-.154-7.631 4.632-5.834 9.103 1.672 6.099 11.883 10.76 14.23 2.583z" style="fill:url(#e)"/><path d="M119.058 39.25c5.746 7.16 14.619 4.559 17.027-4.063 2.186-7.286-2.64-12.516-10.11-10.87-5.77 1.686-10.936 9.286-7 14.813z" style="fill:url(#a)"/><path d="M109.622 296.028c2.722 4.476 12.273 7.388 16.283 3.194 2.688-2.901 2.496-9.735-.549-12.876-2.006-2.174-5.16-2.735-8-2.251-5.398.588-10.792 6.498-7.804 11.814z" style="fill:url(#h)"/><path d="M110.188 258.265c3.972 5.58 12.606 4.937 15.63-1.13 1.517-3.096.87-7.118-1.63-9.51-7.23-6.833-21.078.996-14.092 10.52z" style="fill:url(#i)"/><path d="M74.49 219.094c-5.9-8.464-15.014-4.965-13.168 5.91.46 3.156 1.683 6.127 3.98 7.758 3.06 2.342 7.596 1.612 9.855-1.51 2.93-3.568 2.013-8.564-.584-12.04z" style="fill:url(#j)"/><path d="M155.472 311.775c4.87-1.636 7.173-8.02 4.072-12.185-1.53-2.028-4.406-2.907-7.235-2.981-5.01-.344-9.969 3.404-9.354 8.615.527 5.816 7.254 8.667 12.376 6.605z" style="fill:url(#k)"/><path d="M132.926 171.572c3.594 6.407 13.197 8.71 14.957-.672 1.55-6.19-1.444-12.261-8.198-11.631-6.067.394-9.678 6.708-6.828 12.166z" style="fill:url(#l)"/><path d="M111.938 160.99c-.826 6.47 9.102 8.247 13.716 5.933 5.03-2.543 4.167-10.608.267-14.327-6.539-6.122-12.838 1.89-13.966 8.269z" style="fill:url(#m)"/><path d="M134.337 13.212c2.966 5.201 12.444 7.307 16.54 2.322 4.11-5.642-.437-12.553-7.147-12.205-5.142-.225-12.129 4.026-9.454 9.759z" style="fill:url(#n)"/><path d="M169.434 89.312c5.52 3.028 12.99-.337 12.47-7.087-.41-6.788-9.393-10.74-14.521-6.031-4.22 3.581-2.947 10.644 1.918 13.047z" style="fill:url(#o)"/><path d="M138.258 325.774c8.742 1.005 8.725-8.974 2.978-12.98-5.105-4.102-13.027-.465-11.978 6.225.875 3.89 5.247 6.067 8.853 6.734z" style="fill:url(#p)"/><path d="M180.478 341.275c-4.696 2.108-3.535 9.29-.111 12.15 5.051 4.605 16.941 3.348 15.515-5.39-1.463-6.096-9.698-8.729-15.277-6.815z" style="fill:url(#q)"/><path d="M52.686 55.85c4.343 3.998 12.458 1.779 14.05-3.913 1.094-4.113-1.966-8.814-6.103-9.689-8.81-1.637-14.448 6.856-8.055 13.505z" style="fill:url(#r)"/><path d="M25.999 307.816c2.505 4.939 10.905 7.41 14.788 2.73 3.861-4.928 1.741-11.182-4.656-12.096-5.859-1.515-13.09 2.854-10.194 9.239z" style="fill:url(#s)"/><path d="M164.432 17.583c5.873-1.117 13.13-8.814 7.778-14.436-3.044-3.129-8.588-4.378-11.854-1.629-2.47 2.134-2.982 5.762-2.694 8.888.342 3.9 2.397 8.085 6.643 7.202z" style="fill:url(#f)"/><path d="M250.526 153.476c1.456 3.268 4.963 6.321 8.666 5.08 3.853-1.358 6.731-8.026 6.599-12.625-.236-5.745-7.691-5.63-11.493-3.545-4.762 2.083-5.937 6.417-3.838 10.944z" style="fill:url(#t)"/><path d="M51.6 248.808c3.166 1.681 7.56-.025 9.455-2.974 2.687-3.908 1.377-10.522-1.811-13.227-2.46-2.205-6.178-1.346-8.322.953-3.771 3.773-3.969 12.194.57 15.187z" style="fill:url(#u)"/><path d="M31.047 57.012c5.712.856 13.134-2.272 9.016-8.908-3.999-6.577-16.267-7.23-17.242 1.679-.005 4.172 4.091 6.77 8.068 7.21z" style="fill:url(#v)"/><path d="M87.063 111.72c3.58-.31 9.094-1.974 8.608-6.413-.294-2.82-2.838-6.929-5.735-8.937-5.549-3.961-10.79 1.765-10.409 7.522.047 4.165 2.896 8.117 7.383 7.833z" style="fill:url(#w)"/><path d="M253.002 362.872c4.543.378 7.022-3.066 7.008-7.172.307-5.032-3.717-9.617-8.918-8.428-3.496.712-6.58 4.234-7.227 7.333-.986 4.905 4.8 7.907 8.972 8.256z" style="fill:url(#x)"/><path d="M71.92 92.23c3.032 2.86 9.483 3.455 11.439-.924 2.103-4.304-1.7-14.674-7.368-13.27-5.248 1.787-8.492 9.93-4.176 14.094z" style="fill:url(#y)"/><path d="M41.942 108.444c-1.688 4.142 2.475 8.048 6.495 8.097 4.307.287 9-2.643 9.926-6.557 1.894-10.194-13.482-8.43-16.368-1.67z" style="fill:url(#z)"/><path d="M46.487 161.238c3.401-1.568 4.82-5.679 3.834-9.263-.999-4.95-6.327-7.861-10.238-3.886-2.913 2.966-4.495 7.749-2.267 11.049 1.846 2.634 5.64 3.547 8.545 2.16z" style="fill:url(#A)"/><path d="M114.385 118.871c1.545 4.374 8.25 8.108 12.18 4.627 2.7-3.34.839-10.252-2.739-12.823-5.57-3.837-11.755 2.078-9.49 8.06z" style="fill:url(#B)"/><path d="M135.137 73.842c2.09 4.35 8.369 4.805 11.005.836 3.095-4.357.28-11.924-5.39-12.234-6.164-.527-8.256 6.577-5.685 11.265z" style="fill:url(#C)"/><path d="M31.66 139.544c2.07 4.684 9.36 6.265 13.286 3.443 2.24-1.485 3.295-4.43 2.255-6.95-1.448-3.835-5.993-4.765-9.679-3.715-3.288.727-7.127 3.51-5.907 7.098z" style="fill:url(#D)"/><path d="M120.384 79.112c4.357 7.207 15.183 5.068 11.998-4.668-3.05-10.823-16.23-4.75-12.067 4.539z" style="fill:url(#E)"/><path d="M76.918 359.382c1.422 8.837 16.19 7.343 15.342-1.82-1.31-9.116-15.433-6.767-15.354 1.68z" style="fill:url(#F)"/><path d="M222.165 80.643c8.013.59 9.099-9.511 3.164-13.07-2.263-1.288-5.297-1.332-7.41.235-2.127 1.57-3.11 4.742-2.695 7.375.401 3.104 3.64 5.287 6.787 5.45z" style="fill:url(#G)"/><path d="M268.273 125.655c-7.926.288-10.259 13.604-.776 12.787 7.221-.871 9.168-12.31.923-12.787z" style="fill:url(#H)"/><path d="M76.889 285.554c3.615-.544 6.232-3.234 6.512-6.832.726-7.312-6.55-9.085-11.286-3.821-3.787 4.426-2.238 11.824 4.625 10.676z" style="fill:url(#I)"/><path d="M71.663 302.562c7.548 1.703 9.84-6.64 4.686-11.364-2.658-2.477-7.005-2.007-9.266.79-3.699 4.079-.48 9.493 4.425 10.539z" style="fill:url(#J)"/><path d="M237.24 159.101c3.542 1.15 11.465 1.059 10.928-4.332-.608-3.569-4.409-6.348-8.012-6.105-5.279.007-8.957 8.194-3.049 10.388z" style="fill:url(#K)"/><path d="M44.795 41.338c2.933 5.8 12.44-.795 10.708-5.717-2.813-7.448-12.735-.29-10.756 5.59z" style="fill:url(#L)"/><path d="M235.208 208.988c6.115-.241 5.068-7.35 1.977-10.689-2.125-2.451-6.035-3.637-8.796-1.623-2.416 1.738-3.21 5.915-1.637 8.6 1.61 2.801 5.286 3.873 8.317 3.722z" style="fill:url(#M)"/><path d="M52.2 145.193c2.483 8.266 16.522 8.635 14.201-1.832-.901-3.906-4.405-7.956-8.224-7.892-4.847-.183-7.426 5.367-6.02 9.58z" style="fill:url(#N)"/><path d="M104.618 76.32c6.638-2.77 4.16-12.704-2.31-14-4.967-1.39-11.549 2.745-11.069 8.306.71 5.26 9.025 7.29 13.257 5.743z" style="fill:url(#O)"/><path d="M261.062 99.206c9.728 3.66 12.392-8.729 6.016-14.35-6.287-5.77-11.717 1.399-10.458 8.077.367 2.654 1.903 5.23 4.313 6.217z" style="fill:url(#P)"/><path d="M2.704 188.206c-2.786 1.826-3.619 5.894-1.552 8.57 2.815 3.924 9.51 4.9 13.108 1.802 3.113-2.522 3.525-7.685-.265-9.896-3.073-1.978-8.17-2.59-11.18-.552z" style="fill:url(#Q)"/><path d="M118.054 319.467c8.056 2.644 16.508 8.19 18.687 16.555 1.991 8.118-3.89 16.431-11.435 19.256-17.398 6.395-43.506-5.47-32.21-26.52 4.824-8.753 14.766-12.674 24.673-9.377z" style="fill:url(#R)"/><path d="M89.777 13.108c8.552 6.169 12.487 16.83 8.399 26.595-3.042 7.887-12.195 14.76-20.664 10.929-10.332-4.386-19.075-21.59-14.543-33.886 4.23-11.793 18.14-10.372 26.572-3.81z" style="fill:url(#S)"/><path d="M52.426 170.254c15.762 4.706 13.477 25.634 3.028 34.777-9.661 10.007-28.727 4.304-30.823-9.52-1.375-9.169 3.664-17.88 11.622-22.252 4.706-2.772 10.49-4.56 15.901-3.08z" style="fill:url(#b)"/><path d="M207.522 74.608c-8.898 13.784-24.604 1.957-29.714-9.084-3.757-6.68-4.847-15.952 1.493-21.396 7.122-6.4 19.308-7.32 25.822-.145 7.176 7.93 7.66 21.298 2.545 30.388z" style="fill:url(#T)"/><path d="M160.877 260.208c5.117 6 3.54 16.545.053 23.507-4.28 9.408-14.568 12.818-23.015 6.559-13.118-8.664-13.405-29.865 2.902-34.765 6.58-2.195 15.46-.723 19.897 4.507z" style="fill:url(#U)"/><path d="M64.383 264.754c4.448 15.21-3.338 46.56-22.928 27.415-8.73-8.801-12.455-23.247-2.654-32.002 8.03-7.36 21.861-7.863 25.494 4.318z" style="fill:url(#V)"/><path d="M58.66 63.487c7.068 4.429 9.232 14.465 6.883 22.224-2.91 11.444-14.304 15.635-23.677 8.436-10.062-7.047-17.12-24.975-3.201-31.71 6.018-2.87 14.102-2.68 19.762.9z" style="fill:url(#W)"/><path d="M192.497 174.27c-2.213 14.797-21.926 13.665-31.332 6.391-14.777-11.388-8.199-25.337 10.247-26.09 11.124-1.115 22.554 7.67 21.12 19.427z" style="fill:url(#X)"/><path d="M159.68 133.448c3.353 8.847-2.968 20.003-12.259 21.858-10.783 2.392-22.078-8.023-21.85-18.909.158-19.017 28.108-18.159 34.012-3.204z" style="fill:url(#Y)"/><path d="M203.276 393.003c9.283 8.057 10.746 23.635 2.913 33.177-14.29 18.132-41.424-2.963-34.012-21.943 4.579-11.222 20.358-20.528 30.88-11.419z" style="fill:url(#Z)"/><path d="M253.463 134.969c-12.302 12.897-28.129 2.69-31.888-11.922-2.178-7.867 1.217-16.541 8.157-20.787 6.869-4.444 16.12-4.155 22.87.6 11.224 7.466 10.171 23.08 1.074 31.893z" style="fill:url(#aa)"/><path d="M161.25 453.017c-12.673 6.317-25.655-6.88-27.153-19.08-1.324-7.97 3.029-13.938 10.64-18.328 12.808-8.135 25.408.541 27.539 14.887 1.367 8.72-2.885 18.292-10.77 22.392z" style="fill:url(#g)"/><path d="M99.625 382.861c5.395 11.96-6.271 28.999-19.822 25.443-14.68-3.946-25.244-22.398-10.714-33.195 9.427-6.881 25.675-3.203 30.426 7.503z" style="fill:url(#ab)"/><path d="M140.496 252.109c-3.228.527-7.561 1.354-8.983-2.16-.96-2.577-.094-5.871 1.764-7.904 3.81-4.09 13.631-5.11 16.371.667.95 2.124.377 4.772-1.271 6.38-1.952 1.87-5.071 2.44-7.739 2.99z" style="fill:url(#ac)"/><path d="M198.434 233.097c-2.36 2.332-6.577 3.19-9.463 1.346-2.435-1.472-3.652-4.797-2.423-7.431 1.75-3.995 7.438-6.223 11.253-3.787 3.38 2.028 3.39 7.13.728 9.775z" style="fill:url(#ad)"/><path d="M203.411 384.584c-1.302-4.866 2.761-10.624 7.864-10.77 4.504-.144 7.116 4.32 5.44 8.49-1.559 5.686-11.081 10.033-13.27 2.407z" style="fill:url(#ae)"/><path d="M136.915 456.216c.895 7.917-8.628 11.012-14.624 7.177-5.388-3.018-4.831-10.605-.12-13.968 4.965-3.452 14.211.437 14.729 6.656z" style="fill:url(#af)"/><path d="M129.006 434.462c.45 5.536-5.315 10.535-10.81 10.157-6.765-.412-7.996-6.741-4.416-11.894 1.701-2.625 4.088-4.807 7.089-5.013 3.841-.33 7.732 2.818 8.123 6.624z" style="fill:url(#ag)"/><path d="M267.849 247.473c-1.825 4.779-8.494 6.133-12.377 3.13-4.877-4.115-2.267-15.07 4.854-15.295 6.642-.387 9.905 6.304 7.575 12.037z" style="fill:url(#ah)"/><path d="M218.314 402.567c-5.655-2.355-6.78-9.925-1.352-13.256 4.669-3.231 9.632-2.264 11.924 3.32 3.408 6.99-4.084 12.517-10.445 9.99z" style="fill:url(#ai)"/><path d="M210.59 292.448c-8.152.936-8.137-8.37-2.777-12.105 4.76-3.825 12.148-.434 11.17 5.806-.816 3.626-4.893 5.657-8.256 6.28z" style="fill:url(#aj)"/><path d="M223.855 293.847c4.379 1.967 3.296 8.663.104 11.331-4.711 4.294-15.8 3.122-14.469-5.026 1.364-5.686 9.044-8.14 14.246-6.356z" style="fill:url(#ak)"/><path d="M231.254 296c-5.476-1.043-12.243-8.22-7.253-13.462 2.838-2.919 8.009-4.083 11.054-1.52 2.304 1.99 2.781 5.373 2.513 8.289-.32 3.636-2.236 7.539-6.196 6.715z" style="fill:url(#al)"/><path d="M79.327 424.743c-3.305 3.6-10.583 3.6-13.796-.233-2.924-3.592-.485-9.272 3.408-11.044 6.194-3.127 15.283 5.16 10.475 11.177z" style="fill:url(#am)"/><path d="M61.107 406.53c-.97 6.845-9.154 10.808-13.764 4.582-3.855-4.405-1.602-13.929 4.71-13.918 4.613.196 9.692 4.261 9.07 9.194z" style="fill:url(#an)"/><path d="M183.15 453.392c-3.407.714-7.48-1.781-7.691-5.394-.171-3.872 2.617-8.806 5.387-10.818 2.695-1.873 5.37.93 6.647 3.268 2.802 4.51 1.24 11.62-4.214 12.916z" style="fill:url(#ao)"/><path d="M48.504 394.026c-5.694 1.05-8.287-6.151-6.8-10.682 1.25-5.42 8.13-5.836 10.868-1.406 2.875 4.187 1.356 10.966-3.935 12.063z" style="fill:url(#ap)"/><path d="M160.372 375.947c-2.107 3.295-7.803 4.46-10.798 1.701-3.03-2.888-1.923-10.357 1.619-12.409 5.796-2.972 12.257 5.37 9.245 10.597z" style="fill:url(#aq)"/><path d="M256.929 337.882c-13.935 6.947-28.208-7.564-29.855-20.978-1.455-8.763 3.33-15.324 11.7-20.15 14.08-8.945 27.934.594 30.277 16.368 1.503 9.587-3.172 20.111-11.842 24.619z" style="fill:url(#ar)"/></g></svg>