<svg width="40" height="40" viewBox="0 0 40 40" fill="none" xmlns="http://www.w3.org/2000/svg">
<path d="M39.3125 19.3125H34.4375C34.125 11.875 28.125 5.875 20.6875 5.5625V0.6875C20.6875 0.3125 20.375 0 20 0C19.625 0 19.3125 0.3125 19.3125 0.6875V5.5625C11.875 5.875 5.875 11.875 5.5625 19.3125H0.6875C0.3125 19.3125 0 19.625 0 20C0 20.375 0.3125 20.6875 0.6875 20.6875H5.5625C5.9375 28.125 11.875 34.0625 19.3125 34.4375V39.3125C19.3125 39.6875 19.625 40 20 40C20.375 40 20.6875 39.6875 20.6875 39.3125V34.4375C28.125 34.0625 34.0625 28.125 34.4375 20.6875H39.3125C39.6875 20.6875 40 20.375 40 20C40 19.625 39.6875 19.3125 39.3125 19.3125ZM33.0625 19.3125H30.5C30.1875 14.0625 25.9375 9.875 20.6875 9.5V6.9375C27.375 7.3125 32.6875 12.625 33.0625 19.3125ZM19.3125 19.3125H10.875C11.25 14.8125 14.8125 11.25 19.3125 10.875V19.3125ZM19.3125 20.6875V29.125C14.8125 28.75 11.25 25.1875 10.875 20.6875H19.3125ZM20.6875 20.6875H29.125C28.75 25.1875 25.1875 28.75 20.6875 29.125V20.6875ZM20.6875 19.3125V10.875C25.1875 11.25 28.75 14.8125 29.125 19.3125H20.6875ZM19.3125 6.9375V9.5C14.0625 9.8125 9.875 14.0625 9.5 19.3125H6.9375C7.3125 12.625 12.625 7.3125 19.3125 6.9375ZM6.9375 20.6875H9.5C9.8125 25.9375 14.0625 30.125 19.3125 30.5V33.0625C12.625 32.6875 7.3125 27.375 6.9375 20.6875ZM20.6875 33.0625V30.5C25.9375 30.1875 30.125 25.9375 30.5 20.6875H33.0625C32.6875 27.375 27.375 32.6875 20.6875 33.0625Z" fill="currentColor"/>
</svg>
