<svg width="139" height="32" viewBox="0 0 139 32" fill="none" xmlns="http://www.w3.org/2000/svg">
<path d="M26.6221 21C25.2899 26.1756 20.5916 30 15.0001 30C8.37271 30 3.00012 24.6274 3.00012 18C3.00012 14.446 4.54512 11.2528 7.00012 9.05554L7.00012 11.999C5.7443 13.6705 5.00012 15.7483 5.00012 18C5.00012 23.5228 9.47728 28 15.0001 28C19.4778 28 23.2681 25.0571 24.5423 21H26.6221Z" fill="black"/>
<path d="M9.00012 14.3925V16L12.0001 16V22L17.0001 22V18L22.0001 18C22.0001 21.866 18.8661 25 15.0001 25C11.1341 25 8.00012 21.866 8.00012 18C8.00012 16.6804 8.3653 15.446 9.00012 14.3925Z" fill="#A13190"/>
<rect x="13" y="18" width="3" height="3" fill="#8A099E"/>
<rect x="18" y="13" width="4" height="4" fill="#9125F5"/>
<rect x="13" y="13" width="4" height="4" fill="#A13190"/>
<rect x="10" y="13" width="2" height="2" fill="#8A099E"/>
<rect x="13" y="8" width="4" height="4" fill="#9125F5"/>
<rect x="23" y="13" width="4" height="4" fill="#A13190"/>
<rect x="26" y="4" width="3" height="3" fill="#9125F5"/>
<rect x="20" y="2" width="2" height="2" fill="#8A099E"/>
<rect x="8" y="8" width="4" height="4" fill="#F16DFA"/>
<rect x="12" y="1" width="5" height="5" fill="#F16DFA"/>
<rect x="19" y="6" width="5" height="5" fill="#5386FE"/>
<rect x="25" y="18" width="2" height="2" fill="#5386FE"/>
<path d="M49.216 24.812C48.08 24.812 47.012 24.588 46.012 24.14C45.012 23.684 44.132 23.06 43.372 22.268C42.62 21.468 42.028 20.54 41.596 19.484C41.172 18.428 40.96 17.3 40.96 16.1C40.96 14.9 41.172 13.772 41.596 12.716C42.028 11.66 42.62 10.736 43.372 9.944C44.132 9.144 45.012 8.52 46.012 8.072C47.012 7.616 48.08 7.388 49.216 7.388C50.576 7.388 51.828 7.704 52.972 8.336C54.116 8.968 55.064 9.808 55.816 10.856L53.596 12.044C53.076 11.388 52.432 10.864 51.664 10.472C50.896 10.08 50.08 9.884 49.216 9.884C48.416 9.884 47.668 10.048 46.972 10.376C46.276 10.704 45.664 11.152 45.136 11.72C44.608 12.288 44.196 12.948 43.9 13.7C43.604 14.452 43.456 15.252 43.456 16.1C43.456 16.956 43.604 17.76 43.9 18.512C44.196 19.256 44.608 19.916 45.136 20.492C45.672 21.06 46.288 21.508 46.984 21.836C47.68 22.156 48.424 22.316 49.216 22.316C50.096 22.316 50.916 22.12 51.676 21.728C52.444 21.328 53.084 20.8 53.596 20.144L55.816 21.356C55.064 22.404 54.116 23.244 52.972 23.876C51.828 24.5 50.576 24.812 49.216 24.812ZM62.7981 24.812C61.6941 24.812 60.6861 24.528 59.7741 23.96C58.8701 23.392 58.1461 22.632 57.6021 21.68C57.0661 20.72 56.7981 19.66 56.7981 18.5C56.7981 17.62 56.9541 16.8 57.2661 16.04C57.5781 15.272 58.0061 14.6 58.5501 14.024C59.1021 13.44 59.7421 12.984 60.4701 12.656C61.1981 12.328 61.9741 12.164 62.7981 12.164C63.7181 12.164 64.5621 12.356 65.3301 12.74C66.0981 13.116 66.7541 13.64 67.2981 14.312C67.8421 14.976 68.2421 15.744 68.4981 16.616C68.7541 17.48 68.8301 18.4 68.7261 19.376H59.4741C59.5781 19.928 59.7781 20.428 60.0741 20.876C60.3781 21.316 60.7621 21.664 61.2261 21.92C61.6981 22.176 62.2221 22.308 62.7981 22.316C63.4061 22.316 63.9581 22.164 64.4541 21.86C64.9581 21.556 65.3701 21.136 65.6901 20.6L68.2221 21.188C67.7421 22.252 67.0181 23.124 66.0501 23.804C65.0821 24.476 63.9981 24.812 62.7981 24.812ZM59.3901 17.468H66.2061C66.1261 16.892 65.9221 16.372 65.5941 15.908C65.2741 15.436 64.8701 15.064 64.3821 14.792C63.9021 14.512 63.3741 14.372 62.7981 14.372C62.2301 14.372 61.7021 14.508 61.2141 14.78C60.7341 15.052 60.3341 15.424 60.0141 15.896C59.7021 16.36 59.4941 16.884 59.3901 17.468ZM70.5494 24.5V6.5H73.0454V24.5H70.5494ZM75.9166 24.5V6.5H78.4126V24.5H75.9166ZM87.5238 12.164C88.6918 12.164 89.7518 12.448 90.7038 13.016C91.6638 13.584 92.4278 14.348 92.9958 15.308C93.5638 16.26 93.8478 17.32 93.8478 18.488C93.8478 19.36 93.6838 20.18 93.3558 20.948C93.0278 21.708 92.5718 22.38 91.9878 22.964C91.4118 23.54 90.7398 23.992 89.9718 24.32C89.2118 24.648 88.3958 24.812 87.5238 24.812C86.6838 24.812 85.9478 24.62 85.3158 24.236C84.6918 23.844 84.1798 23.344 83.7798 22.736V24.5H81.2838V6.5H83.7798V14.24C84.1798 13.624 84.6918 13.124 85.3158 12.74C85.9478 12.356 86.6838 12.164 87.5238 12.164ZM87.4998 22.388C88.1958 22.388 88.8318 22.212 89.4078 21.86C89.9838 21.508 90.4398 21.036 90.7758 20.444C91.1198 19.852 91.2918 19.2 91.2918 18.488C91.2918 17.76 91.1198 17.1 90.7758 16.508C90.4318 15.916 89.9718 15.448 89.3958 15.104C88.8198 14.752 88.1878 14.576 87.4998 14.576C86.8038 14.576 86.1918 14.752 85.6638 15.104C85.1358 15.456 84.7238 15.928 84.4278 16.52C84.1318 17.112 83.9838 17.768 83.9838 18.488C83.9838 19.208 84.1318 19.864 84.4278 20.456C84.7238 21.048 85.1358 21.52 85.6638 21.872C86.1918 22.216 86.8038 22.388 87.4998 22.388ZM103.285 12.5H105.949L99.373 30.5H96.721L98.893 24.5L94.585 12.5H97.309L100.141 21.08L103.285 12.5ZM114.385 14.996H111.865L111.853 24.5H109.357L109.369 14.996H107.461V12.5H109.369L109.357 8.732H111.853L111.865 12.5H114.385V14.996ZM121.533 24.812C120.429 24.812 119.421 24.528 118.509 23.96C117.605 23.392 116.881 22.632 116.337 21.68C115.801 20.72 115.533 19.66 115.533 18.5C115.533 17.62 115.689 16.8 116.001 16.04C116.313 15.272 116.741 14.6 117.285 14.024C117.837 13.44 118.477 12.984 119.205 12.656C119.933 12.328 120.709 12.164 121.533 12.164C122.453 12.164 123.297 12.356 124.065 12.74C124.833 13.116 125.489 13.64 126.033 14.312C126.577 14.976 126.977 15.744 127.233 16.616C127.489 17.48 127.565 18.4 127.461 19.376H118.209C118.313 19.928 118.513 20.428 118.809 20.876C119.113 21.316 119.497 21.664 119.961 21.92C120.433 22.176 120.957 22.308 121.533 22.316C122.141 22.316 122.693 22.164 123.189 21.86C123.693 21.556 124.105 21.136 124.425 20.6L126.957 21.188C126.477 22.252 125.753 23.124 124.785 23.804C123.817 24.476 122.733 24.812 121.533 24.812ZM118.125 17.468H124.941C124.861 16.892 124.657 16.372 124.329 15.908C124.009 15.436 123.605 15.064 123.117 14.792C122.637 14.512 122.109 14.372 121.533 14.372C120.965 14.372 120.437 14.508 119.949 14.78C119.469 15.052 119.069 15.424 118.749 15.896C118.437 16.36 118.229 16.884 118.125 17.468ZM133.095 24.728C132.463 24.688 131.847 24.56 131.247 24.344C130.647 24.128 130.119 23.836 129.663 23.468C129.215 23.092 128.879 22.652 128.655 22.148L130.779 21.236C130.883 21.452 131.063 21.664 131.319 21.872C131.583 22.08 131.891 22.252 132.243 22.388C132.595 22.516 132.963 22.58 133.347 22.58C133.723 22.58 134.071 22.528 134.391 22.424C134.719 22.312 134.987 22.144 135.195 21.92C135.403 21.696 135.507 21.428 135.507 21.116C135.507 20.764 135.387 20.492 135.147 20.3C134.915 20.1 134.623 19.948 134.271 19.844C133.919 19.74 133.567 19.64 133.215 19.544C132.431 19.368 131.711 19.128 131.055 18.824C130.407 18.512 129.891 18.116 129.507 17.636C129.123 17.148 128.931 16.552 128.931 15.848C128.931 15.08 129.139 14.416 129.555 13.856C129.971 13.288 130.515 12.852 131.187 12.548C131.867 12.244 132.591 12.092 133.359 12.092C134.319 12.092 135.199 12.296 135.999 12.704C136.799 13.112 137.411 13.672 137.835 14.384L135.855 15.56C135.735 15.32 135.555 15.104 135.315 14.912C135.075 14.72 134.803 14.568 134.499 14.456C134.195 14.336 133.879 14.268 133.551 14.252C133.143 14.236 132.763 14.284 132.411 14.396C132.067 14.5 131.791 14.668 131.583 14.9C131.375 15.132 131.271 15.428 131.271 15.788C131.271 16.14 131.395 16.404 131.643 16.58C131.891 16.748 132.203 16.884 132.579 16.988C132.963 17.092 133.355 17.208 133.755 17.336C134.467 17.56 135.135 17.836 135.759 18.164C136.383 18.484 136.887 18.88 137.271 19.352C137.655 19.824 137.839 20.4 137.823 21.08C137.823 21.832 137.595 22.492 137.139 23.06C136.691 23.628 136.107 24.06 135.387 24.356C134.667 24.652 133.903 24.776 133.095 24.728Z" fill="black"/>
</svg>
