<svg width="189" height="32" viewBox="0 0 189 32" fill="none" xmlns="http://www.w3.org/2000/svg">
<path d="M26.6221 21C25.2899 26.1756 20.5916 30 15.0001 30C8.37271 30 3.00012 24.6274 3.00012 18C3.00012 14.446 4.54512 11.2528 7.00012 9.05554L7.00012 11.999C5.7443 13.6705 5.00012 15.7483 5.00012 18C5.00012 23.5228 9.47728 28 15.0001 28C19.4778 28 23.2681 25.0571 24.5423 21H26.6221Z" fill="black"/>
<path d="M9.00012 14.3925V16L12.0001 16V22L17.0001 22V18L22.0001 18C22.0001 21.866 18.8661 25 15.0001 25C11.1341 25 8.00012 21.866 8.00012 18C8.00012 16.6804 8.3653 15.446 9.00012 14.3925Z" fill="#A13190"/>
<rect x="13" y="18" width="3" height="3" fill="#8A099E"/>
<rect x="18" y="13" width="4" height="4" fill="#9125F5"/>
<rect x="13" y="13" width="4" height="4" fill="#A13190"/>
<rect x="10" y="13" width="2" height="2" fill="#8A099E"/>
<rect x="13" y="8" width="4" height="4" fill="#9125F5"/>
<rect x="23" y="13" width="4" height="4" fill="#A13190"/>
<rect x="26" y="4" width="3" height="3" fill="#9125F5"/>
<rect x="20" y="2" width="2" height="2" fill="#8A099E"/>
<rect x="8" y="8" width="4" height="4" fill="#F16DFA"/>
<rect x="12" y="1" width="5" height="5" fill="#F16DFA"/>
<rect x="19" y="6" width="5" height="5" fill="#5386FE"/>
<rect x="25" y="18" width="2" height="2" fill="#5386FE"/>
<path d="M51.532 7.7H54.028V24.5H51.532V16.748H43.936V24.5H41.44V7.7H43.936V14.252H51.532V7.7ZM62.0247 24.812C60.9207 24.812 59.9127 24.528 59.0007 23.96C58.0967 23.392 57.3727 22.632 56.8287 21.68C56.2927 20.72 56.0247 19.66 56.0247 18.5C56.0247 17.62 56.1807 16.8 56.4927 16.04C56.8047 15.272 57.2327 14.6 57.7767 14.024C58.3287 13.44 58.9687 12.984 59.6967 12.656C60.4247 12.328 61.2007 12.164 62.0247 12.164C62.9447 12.164 63.7887 12.356 64.5567 12.74C65.3247 13.116 65.9807 13.64 66.5247 14.312C67.0687 14.976 67.4687 15.744 67.7247 16.616C67.9807 17.48 68.0567 18.4 67.9527 19.376H58.7007C58.8047 19.928 59.0047 20.428 59.3007 20.876C59.6047 21.316 59.9887 21.664 60.4527 21.92C60.9247 22.176 61.4487 22.308 62.0247 22.316C62.6327 22.316 63.1847 22.164 63.6807 21.86C64.1847 21.556 64.5967 21.136 64.9167 20.6L67.4487 21.188C66.9687 22.252 66.2447 23.124 65.2767 23.804C64.3087 24.476 63.2247 24.812 62.0247 24.812ZM58.6167 17.468H65.4327C65.3527 16.892 65.1487 16.372 64.8207 15.908C64.5007 15.436 64.0967 15.064 63.6087 14.792C63.1287 14.512 62.6007 14.372 62.0247 14.372C61.4567 14.372 60.9287 14.508 60.4407 14.78C59.9607 15.052 59.5607 15.424 59.2407 15.896C58.9287 16.36 58.7207 16.884 58.6167 17.468ZM69.94 24.5V12.5H72.436V13.772C72.852 13.276 73.36 12.884 73.96 12.596C74.568 12.308 75.224 12.164 75.928 12.164C76.784 12.164 77.572 12.372 78.292 12.788C79.012 13.196 79.584 13.74 80.008 14.42C80.432 13.74 80.996 13.196 81.7 12.788C82.412 12.372 83.196 12.164 84.052 12.164C84.94 12.164 85.748 12.38 86.476 12.812C87.204 13.244 87.784 13.824 88.216 14.552C88.648 15.28 88.864 16.088 88.864 16.976V24.5H86.368V17.612C86.368 17.084 86.24 16.6 85.984 16.16C85.728 15.72 85.384 15.364 84.952 15.092C84.52 14.82 84.04 14.684 83.512 14.684C82.984 14.684 82.504 14.812 82.072 15.068C81.64 15.324 81.296 15.672 81.04 16.112C80.784 16.552 80.656 17.052 80.656 17.612V24.5H78.16V17.612C78.16 17.052 78.032 16.552 77.776 16.112C77.52 15.672 77.172 15.324 76.732 15.068C76.3 14.812 75.82 14.684 75.292 14.684C74.772 14.684 74.292 14.82 73.852 15.092C73.42 15.364 73.076 15.72 72.82 16.16C72.564 16.6 72.436 17.084 72.436 17.612V24.5H69.94ZM100.37 12.5H102.866V24.5H100.358L100.262 22.76C99.9098 23.376 99.4338 23.872 98.8338 24.248C98.2338 24.624 97.5258 24.812 96.7098 24.812C95.8298 24.812 95.0018 24.648 94.2258 24.32C93.4498 23.984 92.7658 23.52 92.1738 22.928C91.5898 22.336 91.1338 21.656 90.8058 20.888C90.4778 20.112 90.3138 19.28 90.3138 18.392C90.3138 17.536 90.4738 16.732 90.7938 15.98C91.1138 15.22 91.5578 14.556 92.1258 13.988C92.6938 13.42 93.3498 12.976 94.0938 12.656C94.8458 12.328 95.6498 12.164 96.5058 12.164C97.3778 12.164 98.1458 12.364 98.8098 12.764C99.4818 13.156 100.038 13.66 100.478 14.276L100.37 12.5ZM96.6497 22.4C97.3538 22.4 97.9698 22.228 98.4978 21.884C99.0258 21.532 99.4338 21.06 99.7218 20.468C100.018 19.876 100.166 19.22 100.166 18.5C100.166 17.772 100.018 17.112 99.7218 16.52C99.4258 15.928 99.0138 15.46 98.4858 15.116C97.9658 14.764 97.3538 14.588 96.6497 14.588C95.9538 14.588 95.3178 14.764 94.7418 15.116C94.1658 15.468 93.7098 15.94 93.3738 16.532C93.0378 17.124 92.8698 17.78 92.8698 18.5C92.8698 19.228 93.0418 19.888 93.3858 20.48C93.7378 21.064 94.1978 21.532 94.7658 21.884C95.3418 22.228 95.9698 22.4 96.6497 22.4ZM111.596 14.996H109.076L109.064 24.5H106.568L106.58 14.996H104.672V12.5H106.58L106.568 8.732H109.064L109.076 12.5H111.596V14.996ZM118.743 24.812C117.639 24.812 116.631 24.528 115.719 23.96C114.815 23.392 114.091 22.632 113.547 21.68C113.011 20.72 112.743 19.66 112.743 18.5C112.743 17.62 112.899 16.8 113.211 16.04C113.523 15.272 113.951 14.6 114.495 14.024C115.047 13.44 115.687 12.984 116.415 12.656C117.143 12.328 117.919 12.164 118.743 12.164C119.847 12.164 120.851 12.448 121.755 13.016C122.667 13.584 123.391 14.348 123.927 15.308C124.471 16.268 124.743 17.332 124.743 18.5C124.743 19.372 124.587 20.188 124.275 20.948C123.963 21.708 123.531 22.38 122.979 22.964C122.435 23.54 121.799 23.992 121.071 24.32C120.351 24.648 119.575 24.812 118.743 24.812ZM118.743 22.316C119.407 22.316 120.003 22.14 120.531 21.788C121.059 21.436 121.475 20.972 121.779 20.396C122.091 19.812 122.247 19.18 122.247 18.5C122.247 17.804 122.087 17.164 121.767 16.58C121.455 15.996 121.035 15.532 120.507 15.188C119.979 14.836 119.391 14.66 118.743 14.66C118.087 14.66 117.491 14.836 116.955 15.188C116.427 15.54 116.007 16.008 115.695 16.592C115.391 17.176 115.239 17.812 115.239 18.5C115.239 19.212 115.399 19.856 115.719 20.432C116.039 21.008 116.463 21.468 116.991 21.812C117.527 22.148 118.111 22.316 118.743 22.316ZM130.329 24.728C129.697 24.688 129.081 24.56 128.481 24.344C127.881 24.128 127.353 23.836 126.897 23.468C126.449 23.092 126.113 22.652 125.889 22.148L128.013 21.236C128.117 21.452 128.297 21.664 128.553 21.872C128.817 22.08 129.125 22.252 129.477 22.388C129.829 22.516 130.197 22.58 130.581 22.58C130.957 22.58 131.305 22.528 131.625 22.424C131.953 22.312 132.221 22.144 132.429 21.92C132.637 21.696 132.741 21.428 132.741 21.116C132.741 20.764 132.621 20.492 132.381 20.3C132.149 20.1 131.857 19.948 131.505 19.844C131.153 19.74 130.801 19.64 130.449 19.544C129.665 19.368 128.945 19.128 128.289 18.824C127.641 18.512 127.125 18.116 126.741 17.636C126.357 17.148 126.165 16.552 126.165 15.848C126.165 15.08 126.373 14.416 126.789 13.856C127.205 13.288 127.749 12.852 128.421 12.548C129.101 12.244 129.825 12.092 130.593 12.092C131.553 12.092 132.433 12.296 133.233 12.704C134.033 13.112 134.645 13.672 135.069 14.384L133.089 15.56C132.969 15.32 132.789 15.104 132.549 14.912C132.309 14.72 132.037 14.568 131.733 14.456C131.429 14.336 131.113 14.268 130.785 14.252C130.377 14.236 129.997 14.284 129.645 14.396C129.301 14.5 129.025 14.668 128.817 14.9C128.609 15.132 128.505 15.428 128.505 15.788C128.505 16.14 128.629 16.404 128.877 16.58C129.125 16.748 129.437 16.884 129.813 16.988C130.197 17.092 130.589 17.208 130.989 17.336C131.701 17.56 132.369 17.836 132.993 18.164C133.617 18.484 134.121 18.88 134.505 19.352C134.889 19.824 135.073 20.4 135.057 21.08C135.057 21.832 134.829 22.492 134.373 23.06C133.925 23.628 133.341 24.06 132.621 24.356C131.901 24.652 131.137 24.776 130.329 24.728ZM144.784 21.092L147.016 22.304C146.472 23.064 145.78 23.672 144.94 24.128C144.108 24.584 143.204 24.812 142.228 24.812C141.124 24.812 140.116 24.528 139.204 23.96C138.3 23.392 137.576 22.632 137.032 21.68C136.496 20.72 136.228 19.66 136.228 18.5C136.228 17.62 136.384 16.8 136.696 16.04C137.008 15.272 137.436 14.6 137.98 14.024C138.532 13.44 139.172 12.984 139.9 12.656C140.628 12.328 141.404 12.164 142.228 12.164C143.204 12.164 144.108 12.392 144.94 12.848C145.78 13.304 146.472 13.916 147.016 14.684L144.784 15.896C144.448 15.496 144.056 15.192 143.608 14.984C143.16 14.768 142.7 14.66 142.228 14.66C141.572 14.66 140.976 14.84 140.44 15.2C139.912 15.552 139.492 16.02 139.18 16.604C138.876 17.18 138.724 17.812 138.724 18.5C138.724 19.18 138.88 19.812 139.192 20.396C139.504 20.972 139.924 21.436 140.452 21.788C140.988 22.14 141.58 22.316 142.228 22.316C142.724 22.316 143.196 22.204 143.644 21.98C144.092 21.756 144.472 21.46 144.784 21.092ZM154.158 24.812C153.054 24.812 152.046 24.528 151.134 23.96C150.23 23.392 149.506 22.632 148.962 21.68C148.426 20.72 148.158 19.66 148.158 18.5C148.158 17.62 148.314 16.8 148.626 16.04C148.938 15.272 149.366 14.6 149.91 14.024C150.462 13.44 151.102 12.984 151.83 12.656C152.558 12.328 153.334 12.164 154.158 12.164C155.262 12.164 156.266 12.448 157.17 13.016C158.082 13.584 158.806 14.348 159.342 15.308C159.886 16.268 160.158 17.332 160.158 18.5C160.158 19.372 160.002 20.188 159.69 20.948C159.378 21.708 158.946 22.38 158.394 22.964C157.85 23.54 157.214 23.992 156.486 24.32C155.766 24.648 154.99 24.812 154.158 24.812ZM154.158 22.316C154.822 22.316 155.418 22.14 155.946 21.788C156.474 21.436 156.89 20.972 157.194 20.396C157.506 19.812 157.662 19.18 157.662 18.5C157.662 17.804 157.502 17.164 157.182 16.58C156.87 15.996 156.45 15.532 155.922 15.188C155.394 14.836 154.806 14.66 154.158 14.66C153.502 14.66 152.906 14.836 152.37 15.188C151.842 15.54 151.422 16.008 151.11 16.592C150.806 17.176 150.654 17.812 150.654 18.5C150.654 19.212 150.814 19.856 151.134 20.432C151.454 21.008 151.878 21.468 152.406 21.812C152.942 22.148 153.526 22.316 154.158 22.316ZM164.592 30.5H162.096V12.5H164.592V14.264C164.992 13.648 165.504 13.148 166.128 12.764C166.752 12.38 167.488 12.188 168.336 12.188C169.208 12.188 170.024 12.352 170.784 12.68C171.552 13.008 172.224 13.464 172.8 14.048C173.376 14.624 173.828 15.292 174.156 16.052C174.484 16.812 174.648 17.628 174.648 18.5C174.648 19.372 174.484 20.192 174.156 20.96C173.828 21.728 173.376 22.404 172.8 22.988C172.224 23.564 171.552 24.016 170.784 24.344C170.024 24.672 169.208 24.836 168.336 24.836C167.488 24.836 166.752 24.644 166.128 24.26C165.504 23.868 164.992 23.368 164.592 22.76V30.5ZM168.312 14.6C167.616 14.6 167.004 14.776 166.476 15.128C165.948 15.48 165.536 15.952 165.24 16.544C164.944 17.128 164.796 17.78 164.796 18.5C164.796 19.22 164.944 19.876 165.24 20.468C165.536 21.06 165.948 21.532 166.476 21.884C167.004 22.236 167.616 22.412 168.312 22.412C169 22.412 169.632 22.24 170.208 21.896C170.784 21.544 171.244 21.072 171.588 20.48C171.932 19.888 172.104 19.228 172.104 18.5C172.104 17.788 171.932 17.136 171.588 16.544C171.252 15.952 170.796 15.48 170.22 15.128C169.644 14.776 169.008 14.6 168.312 14.6ZM181.861 24.812C180.757 24.812 179.749 24.528 178.837 23.96C177.933 23.392 177.209 22.632 176.665 21.68C176.129 20.72 175.861 19.66 175.861 18.5C175.861 17.62 176.017 16.8 176.329 16.04C176.641 15.272 177.069 14.6 177.613 14.024C178.165 13.44 178.805 12.984 179.533 12.656C180.261 12.328 181.037 12.164 181.861 12.164C182.781 12.164 183.625 12.356 184.393 12.74C185.161 13.116 185.817 13.64 186.361 14.312C186.905 14.976 187.305 15.744 187.561 16.616C187.817 17.48 187.893 18.4 187.789 19.376H178.537C178.641 19.928 178.841 20.428 179.137 20.876C179.441 21.316 179.825 21.664 180.289 21.92C180.761 22.176 181.285 22.308 181.861 22.316C182.469 22.316 183.021 22.164 183.517 21.86C184.021 21.556 184.433 21.136 184.753 20.6L187.285 21.188C186.805 22.252 186.081 23.124 185.113 23.804C184.145 24.476 183.061 24.812 181.861 24.812ZM178.453 17.468H185.269C185.189 16.892 184.985 16.372 184.657 15.908C184.337 15.436 183.933 15.064 183.445 14.792C182.965 14.512 182.437 14.372 181.861 14.372C181.293 14.372 180.765 14.508 180.277 14.78C179.797 15.052 179.397 15.424 179.077 15.896C178.765 16.36 178.557 16.884 178.453 17.468Z" fill="black"/>
</svg>
