<svg width="1.5em" height="1.5em" viewBox="0 0 64 64" fill="none" xmlns="http://www.w3.org/2000/svg">
<path d="M13.2884 3.6111L15.1509 1.74862L17.0117 3.6111L15.1509 5.47192L13.2884 3.6111Z" fill="currentColor"/>
<path d="M33.2195 25.5186L37.0587 21.6796L40.8979 25.5186L37.0587 29.3582L33.2195 25.5186Z" fill="currentColor"/>
<path d="M36.8687 52.381V56.6163H23.6951V52.3849C25.7723 53.0496 27.9863 53.4072 30.281 53.4072C32.5566 53.4072 34.7746 53.0496 36.8687 52.381Z" fill="currentColor"/>
<path d="M15.5539 57.8555H45.0118C47.0254 57.8555 48.663 59.4933 48.663 61.5069V62.2546H11.9025V61.5069C11.9025 59.4933 13.5403 57.8555 15.5539 57.8555Z" fill="currentColor"/>
<path d="M30.281 52.1678C18.986 52.1678 9.79594 42.9755 9.79594 31.6789C9.79594 26.6007 11.6319 21.8014 14.9921 18.0449C15.4814 19.4513 16.5346 20.5931 17.8791 21.2025C15.3989 24.1327 14.0462 27.815 14.0462 31.6789C14.0462 40.6299 21.33 47.9138 30.281 47.9138C36.3111 47.9138 41.7612 44.6404 44.5967 39.343H49.2867C46.1807 47.0503 38.6531 52.1678 30.281 52.1678Z" fill="currentColor"/>
<path d="M20.1074 12.0927C22.4104 12.0927 24.2834 13.9657 24.2834 16.2687C24.2834 18.5712 22.4104 20.4442 20.1074 20.4442C19.7709 20.4442 19.4427 20.4055 19.1288 20.3291C17.4457 19.9223 16.1549 18.4926 15.9568 16.7397V16.7331C15.9568 16.7126 15.9546 16.6921 15.9502 16.6733C15.9502 16.6672 15.9485 16.6611 15.9485 16.655C15.938 16.5266 15.9319 16.3988 15.9319 16.2687C15.9319 13.9657 17.8049 12.0927 20.1074 12.0927Z" fill="currentColor"/>
<path d="M36.6209 20.3641L31.9038 25.0787C31.8978 25.0853 31.8939 25.0892 31.8895 25.0953L30.9934 25.9919L24.4711 19.4719C25.1319 18.5736 25.5227 17.4666 25.5227 16.2688C25.5227 13.2822 23.094 10.8535 20.1074 10.8535C18.9097 10.8535 17.8049 11.2443 16.9066 11.9052L13.6892 8.68719L15.5849 6.79151C15.5871 6.78929 15.5871 6.78929 15.5887 6.78763L18.3379 4.03846L20.2275 2.1472L37.5337 19.4531L36.6684 20.3209C36.6519 20.3353 36.6354 20.3497 36.6209 20.3641Z" fill="currentColor"/>
<path d="M42.4041 39.3309H40.0946C39.7517 39.3309 39.475 39.0542 39.475 38.711C39.475 38.3706 39.7517 38.0917 40.0946 38.0917H42.2042H51.5975H53.57C53.9128 38.0917 54.1896 38.3706 54.1896 38.711C54.1896 39.0542 53.9128 39.3309 53.57 39.3309H51.7175H50.623H43.18H42.4041Z" fill="currentColor"/>
</svg>
