<svg width="80" height="80" viewBox="0 0 80 80" fill="none" xmlns="http://www.w3.org/2000/svg">
<path d="M26.3779 45.9946C24.9837 45.9946 23.6137 45.621 22.4057 44.9106C20.1764 43.6028 19 41.2012 19 37.9689C19 31.8431 23.2166 24.2031 28.2126 21.2681C30.9236 19.6802 33.6202 19.5818 36.0117 20.983L36.0093 20.9854C38.5969 22.4996 40.1315 25.3536 39.9911 28.3821C39.8507 31.4106 38.0547 34.1072 35.3388 35.366C34.6562 35.6683 34.2471 36.3861 34.3318 37.1383C34.5449 39.4121 33.8017 41.6687 32.2865 43.3575C30.7736 45.0462 28.6266 46.0049 26.3803 46L26.3779 45.9946ZM32.4681 21.9683C29.1519 21.9683 25.7924 25.2131 23.5821 29.0969C20.6411 34.2689 19.5687 40.9723 23.3739 43.2018V43.2043C25.3297 44.3498 27.7551 44.2908 29.6554 43.0519C31.5558 41.813 32.6158 39.5982 32.4052 37.3145C32.2406 35.729 33.1023 34.2148 34.5353 33.5658C36.588 32.6096 37.9435 30.5718 38.0524 28.2808C38.1589 25.9923 36.9971 23.8315 35.0436 22.6836C34.2642 22.2165 33.3758 21.9683 32.4681 21.9683Z" fill="currentColor"/>
<path d="M39.9998 69C32.3073 69 24.9324 65.9452 19.4935 60.5066C14.0545 55.068 11 47.6929 11 40.0004C11 32.3079 14.0548 24.9331 19.4935 19.4942C26.8199 12.1678 37.4977 9.30776 47.5049 11.9885C57.5121 14.6697 65.3299 22.4876 68.0113 32.4947C70.6925 42.5019 67.8319 53.1803 60.5056 60.506C55.0792 65.9618 47.6943 69.0189 39.9992 68.9994L39.9998 69ZM39.9998 12.9675C25.0922 12.9675 12.9661 25.0929 12.9661 40.001C12.9661 54.9091 25.0916 67.0346 39.9998 67.0346C54.9081 67.0346 67.0336 54.9091 67.0336 40.001C67.0336 25.0929 54.9081 12.9675 39.9998 12.9675Z" fill="currentColor"/>
<path d="M49.0018 27C47.3837 27 45.9235 26.0232 45.3044 24.531C44.6853 23.0363 45.0282 21.3146 46.1726 20.1702C47.3171 19.0283 49.0363 18.6854 50.531 19.3045C52.0257 19.9236 53 21.3813 53 22.9994C52.9975 25.2069 51.2093 26.9951 49.0018 27ZM49.0018 20.9718C48.1804 20.9718 47.4429 21.4676 47.1297 22.2248C46.814 22.982 46.9891 23.8527 47.5687 24.4324C48.1484 25.012 49.0191 25.1846 49.7763 24.8714C50.5335 24.5582 51.0268 23.8182 51.0268 22.9994C51.0244 21.882 50.1191 20.9743 49.0018 20.9718Z" fill="currentColor"/>
<path d="M29.9994 59C28.3813 59 26.9236 58.0257 26.3045 56.531C25.6854 55.0362 26.0282 53.3171 27.1702 52.1726C28.3147 51.0282 30.0364 50.6853 31.531 51.3044C33.0233 51.9235 33.9975 53.3837 33.9975 54.9993H34C33.9975 57.2093 32.2069 58.9975 29.9994 59ZM29.9994 52.9767C29.1805 52.9767 28.4405 53.47 28.1273 54.2273C27.8141 54.9845 27.9867 55.8551 28.5663 56.4348C29.146 57.0144 30.0191 57.1871 30.7764 56.8738C31.5336 56.5606 32.0269 55.8206 32.0244 54.9992H32.0269C32.0244 53.8819 31.1167 52.9767 29.9994 52.9767Z" fill="currentColor"/>
<path d="M45.9993 45C44.3837 45 42.9235 44.0257 42.3044 42.531C41.6853 41.0362 42.0282 39.3171 43.1726 38.1726C44.3171 37.0282 46.0363 36.6853 47.531 37.3044C49.0257 37.9235 50 39.3837 50 40.9993C49.9975 43.2093 48.2093 44.9975 45.9993 45ZM45.9993 38.9767C45.1804 38.9767 44.4429 39.47 44.1272 40.2273C43.814 40.9845 43.9891 41.8551 44.5687 42.4348C45.1484 43.0144 46.0191 43.1871 46.7763 42.8738C47.5335 42.5606 48.0268 41.8206 48.0268 40.9992C48.0244 39.8819 47.1191 38.9767 45.9993 38.9767Z" fill="currentColor"/>
<path d="M48.0006 59C46.3821 59 44.9239 58.0257 44.3046 56.531C43.6853 55.0362 44.0282 53.3171 45.1706 52.1726C46.3154 51.0282 48.0376 50.6853 49.5327 51.3044C51.0255 51.9235 52 53.3837 52 54.9993C52 57.2093 50.2088 58.9975 48.0006 59ZM48.0006 52.9767C47.1815 52.9767 46.4413 53.47 46.128 54.2273C45.8146 54.9845 45.9873 55.8551 46.5671 56.4348C47.147 57.0144 48.0204 57.1871 48.7778 56.8738C49.5353 56.5606 50.0288 55.8206 50.0263 54.9992C50.0263 53.8819 49.1183 52.9767 48.0006 52.9767Z" fill="currentColor"/>
<path d="M58.0499 35H56.9477H56.9501C56.4252 35 56 34.5525 56 34C56 33.4475 56.4252 33 56.9501 33H58.0523H58.0499C58.5748 33 59 33.4475 59 34C59 34.5525 58.5748 35 58.0499 35Z" fill="currentColor"/>
<path d="M43.0499 19H41.9477H41.9501C41.4252 19 41 18.5525 41 18C41 17.4475 41.4252 17 41.9501 17H43.0523H43.0499C43.5748 17 44 17.4475 44 18C44 18.5525 43.5748 19 43.0499 19Z" fill="currentColor"/>
<path d="M37.0506 18H35.9494C35.4248 18 35 17.5525 35 17C35 16.4475 35.4248 16 35.9494 16H37.0506C37.5752 16 38 16.4475 38 17C38 17.5525 37.5752 18 37.0506 18Z" fill="currentColor"/>
<path d="M44.7342 30H43.2658C42.5665 30 42 29.5525 42 29C42 28.4475 42.5665 28 43.2658 28H44.7342C45.4335 28 46 28.4475 46 29C46 29.5525 45.4335 30 44.7342 30Z" fill="currentColor"/>
<path d="M50.7342 35H49.2658C48.5665 35 48 34.5525 48 34C48 33.4475 48.5665 33 49.2658 33H50.7342C51.4335 33 52 33.4475 52 34C52 34.5525 51.4335 35 50.7342 35Z" fill="currentColor"/>
<path d="M38.0506 46H36.9494C36.4248 46 36 45.5525 36 45C36 44.4475 36.4248 44 36.9494 44H38.0506C38.5752 44 39 44.4475 39 45C39 45.5525 38.5752 46 38.0506 46Z" fill="currentColor"/>
<path d="M20.0499 52H18.9501C18.4252 52 18 51.55 18 51C18 50.4475 18.4252 50 18.9501 50H20.0523H20.0499C20.5748 50 21 50.4475 21 51C21 51.55 20.5748 52 20.0499 52Z" fill="currentColor"/>
<path d="M39.0506 40H37.9494C37.4248 40 37 39.5525 37 39C37 38.4475 37.4248 38 37.9494 38H39.0506C39.5752 38 40 38.4475 40 39C40 39.5525 39.5752 40 39.0506 40Z" fill="currentColor"/>
<path d="M39.0483 58H37.9494C37.4248 58 37 57.5525 37 57C37 56.4475 37.4248 56 37.9494 56H39.0506C39.5728 56 40 56.4475 40 57C40 57.5525 39.5728 58 39.0506 58H39.0483Z" fill="currentColor"/>
<path d="M42.0506 52H40.9494C40.4248 52 40 51.5525 40 51C40 50.4475 40.4248 50 40.9494 50H42.0506C42.5728 50 43 50.4475 43 51C43 51.5525 42.5728 52 42.0506 52Z" fill="currentColor"/>
<path d="M53.7332 47H52.2637H52.2668C51.5669 47 51 46.5525 51 46C51 45.45 51.5669 45 52.2668 45H53.7363H53.7332C54.4331 45 55 45.45 55 46C55 46.5525 54.4331 47 53.7332 47Z" fill="currentColor"/>
<path d="M64.0506 41H62.9494C62.4272 41 62 40.5525 62 40C62 39.45 62.4272 39 62.9494 39H64.0506C64.5752 39 65 39.45 65 40C65 40.5525 64.5752 41 64.0506 41Z" fill="currentColor"/>
<path d="M61.0499 48H59.9477H59.9501C59.4252 48 59 47.5525 59 47C59 46.4475 59.4252 46 59.9501 46H61.0523H61.0499C61.5748 46 62 46.4475 62 47C62 47.5525 61.5748 48 61.0499 48Z" fill="currentColor"/>
<path d="M56.0499 52H54.9477H54.9501C54.4252 52 54 51.5525 54 51C54 50.45 54.4252 50 54.9501 50H56.0523H56.0499C56.5748 50 57 50.45 57 51C57 51.5525 56.5748 52 56.0499 52Z" fill="currentColor"/>
<path d="M59.0459 30H57.9494C57.4248 30 57 29.5525 57 29C57 28.4475 57.4248 28 57.9494 28H59.0506C59.5752 28 60 28.4475 60 29C60 29.5525 59.5752 30 59.0506 30H59.0459Z" fill="currentColor"/>
<path d="M56.0506 41H54.9494C54.4272 41 54 40.5525 54 40C54 39.4475 54.4272 39 54.9494 39H56.0506C56.5752 39 57 39.4475 57 40C57 40.5525 56.5752 41 56.0506 41Z" fill="currentColor"/>
</svg>
