<svg width="80" height="80" viewBox="0 0 80 80" fill="none" xmlns="http://www.w3.org/2000/svg">
<path d="M17.7687 50.3288C15.6777 49.5985 12.6771 46.9739 12.0298 40.9512C11.8706 37.5444 12.3676 35.5695 13.089 34.2563C13.7928 32.9752 14.7575 32.218 15.9097 31.3135C15.9508 31.2812 15.9921 31.2488 16.0337 31.2161C19.7809 28.2716 24.186 27.5491 31.1643 28.2454C32.3323 28.362 33.4871 28.4577 34.6337 28.5528C40.5508 29.0436 46.2465 29.516 52.3794 32.7287C55.9911 34.6207 59.1515 35.5935 61.5785 36.3405C62.5815 36.6493 63.4592 36.9194 64.1917 37.2C65.4873 37.6962 66.3434 38.2122 66.9223 38.9537C67.4964 39.689 67.8949 40.7729 67.9975 42.6C68.0417 43.388 67.4694 44.3576 66.0022 45.4449C64.5881 46.4928 62.5946 47.4568 60.4277 48.2682C58.2717 49.0756 55.9989 49.7117 54.0632 50.1232C52.0832 50.544 50.5828 50.7018 49.913 50.6316C46.5456 50.2788 39.1665 49.6517 33.0176 51.3696C28.2316 52.7068 21.7114 51.7058 17.7687 50.3288Z" stroke="currentColor" stroke-width="2"/>
<path d="M20 41.6423C20 40.3689 20.0421 39.4546 20.1449 38.7731C20.2471 38.0957 20.3992 37.7235 20.5673 37.4843C20.7269 37.2572 20.96 37.0657 21.3938 36.8608C21.8523 36.6442 22.4471 36.4511 23.3016 36.1766C23.5299 36.1033 23.773 36.0196 24.029 35.9315C24.9971 35.5984 26.1509 35.2012 27.3995 35.0545C28.9337 34.8742 30.4192 35.1033 31.6252 36.2655C32.4433 37.0539 33.2357 37.5978 33.922 38.0211C34.2069 38.1968 34.4496 38.3388 34.663 38.4638C35.0039 38.6633 35.2703 38.8193 35.5148 38.9988C35.8578 39.2506 35.9457 39.4083 35.9795 39.5573C36.0241 39.7536 36.0203 40.1518 35.7122 40.9684C34.7166 43.6068 33.8803 44.2569 33.0323 44.488C32.5303 44.6249 31.9207 44.6438 31.0606 44.6091C30.822 44.5994 30.5628 44.5855 30.2857 44.5707C29.6123 44.5346 28.8335 44.4929 27.9904 44.4929C26.8174 44.4929 25.6712 44.6452 24.669 44.7784C24.6081 44.7864 24.5477 44.7945 24.4879 44.8024C23.4005 44.9462 22.5406 45.0461 21.843 44.9789C21.1895 44.9159 20.8157 44.7197 20.5595 44.3654C20.2635 43.9561 20 43.1672 20 41.6423Z" fill="currentColor" stroke="currentColor" stroke-width="2"/>
<path d="M7 25.72C7 24.7701 7.77007 24 8.72 24H71.28C72.2299 24 73 24.7701 73 25.72V54.28C73 55.2299 72.2299 56 71.28 56H8.72C7.77007 56 7 55.2299 7 54.28V25.72Z" stroke="currentColor" stroke-width="2"/>
</svg>
