<svg width="80" height="80" viewBox="0 0 80 80" fill="none" xmlns="http://www.w3.org/2000/svg" aria-label="Line drawing of cells with one of them being inspected by a magnifying glass">
<path d="M47.638 36.743C46.728 36.161 45.83 35.416 44.812 34.397L43.983 33.569C43.455 33.042 42.724 32.776 41.985 32.855C41.243 32.928 40.58 33.327 40.166 33.947L38.258 36.809C37.657 37.71 36.808 38.399 35.803 38.801L35.689 38.847C34.77 39.214 34.173 40.057 34.132 41.045C34.09 42.034 34.615 42.924 35.506 43.37C37.129 44.181 38.276 45.733 38.574 47.523L38.637 47.905C38.776 48.739 39.322 49.437 40.097 49.773C40.415 49.911 40.75 49.979 41.084 49.979C41.565 49.979 42.043 49.837 42.458 49.561L43.181 49.08C43.261 49.028 43.354 49 43.448 49H45.846C46.917 49 47.863 48.323 48.199 47.316C48.417 46.663 48.888 45.461 49.895 43.447C51.161 40.915 50.338 38.472 47.638 36.743ZM48.105 42.553C47.254 44.254 46.647 45.644 46.301 46.684C46.239 46.87 46.052 47 45.846 47H43.448C42.957 47 42.481 47.145 42.073 47.417L41.35 47.898C41.161 48.026 40.983 47.978 40.893 47.939C40.804 47.9 40.648 47.801 40.61 47.578L40.547 47.196C40.144 44.776 38.594 42.678 36.396 41.579C36.145 41.454 36.127 41.224 36.131 41.13C36.135 41.037 36.172 40.809 36.432 40.705L36.547 40.659C37.93 40.105 39.097 39.158 39.923 37.919L41.831 35.057C41.941 34.893 42.099 34.854 42.183 34.846C42.197 34.844 42.213 34.843 42.231 34.843C42.321 34.843 42.453 34.867 42.569 34.984L43.397 35.812C44.52 36.935 45.525 37.767 46.559 38.428C48.374 39.589 48.894 40.977 48.105 42.553Z" fill="currentColor"/>
<path d="M44 39C42.346 39 41 40.346 41 42C41 43.654 42.346 45 44 45C45.654 45 47 43.654 47 42C47 40.346 45.654 39 44 39ZM44 43C43.449 43 43 42.552 43 42C43 41.448 43.449 41 44 41C44.551 41 45 41.448 45 42C45 42.552 44.551 43 44 43Z" fill="currentColor"/>
<path d="M66.6049 16.482C66.0119 15.579 65.4959 14.532 64.9799 13.187L64.5619 12.093C64.2949 11.396 63.7349 10.861 63.0269 10.625C62.3189 10.39 61.5509 10.483 60.9229 10.882L58.0139 12.718C57.0979 13.296 56.0389 13.582 54.9599 13.536L54.8359 13.531C53.8499 13.472 52.9589 14.017 52.5179 14.904C52.0769 15.791 52.1929 16.817 52.8249 17.588C53.9759 18.989 54.3899 20.875 53.9329 22.63L53.8349 23.005C53.6219 23.822 53.8349 24.683 54.4069 25.306C54.9789 25.929 55.8159 26.215 56.6499 26.076L57.5059 25.93C57.5989 25.913 57.6949 25.926 57.7819 25.965L59.9719 26.943C60.3009 27.089 60.6479 27.161 60.9909 27.161C61.6679 27.161 62.3299 26.884 62.8059 26.365C63.2729 25.855 64.1939 24.948 65.9309 23.522C68.1209 21.727 68.3659 19.16 66.6049 16.482ZM64.6639 21.977C63.1959 23.182 62.0749 24.204 61.3319 25.014C61.1979 25.161 60.9779 25.202 60.7879 25.118L58.5979 24.14C58.2769 23.996 57.9339 23.924 57.5869 23.924C57.4489 23.924 57.3099 23.936 57.1719 23.958L56.3159 24.104C56.0939 24.148 55.9479 24.028 55.8819 23.956C55.8159 23.885 55.7139 23.731 55.7719 23.511L55.8699 23.136C56.4869 20.764 55.9279 18.216 54.3679 16.316C54.1899 16.099 54.2679 15.881 54.3089 15.797C54.3499 15.713 54.4709 15.528 54.7569 15.531L54.8809 15.536C56.3689 15.597 57.8209 15.204 59.0809 14.411L61.9909 12.575C62.1569 12.469 62.3179 12.498 62.3969 12.525C62.4779 12.551 62.6239 12.625 62.6949 12.809L63.1129 13.903C63.6809 15.386 64.2589 16.554 64.9339 17.582C66.1169 19.38 66.0259 20.859 64.6639 21.977Z" fill="currentColor"/>
<path d="M62.3641 17.06C61.6321 16.734 60.8172 16.709 60.0682 16.997C59.3192 17.283 58.7282 17.844 58.4012 18.576C58.0742 19.307 58.0522 20.123 58.3382 20.871C58.6252 21.619 59.1862 22.212 59.9172 22.538C60.3082 22.713 60.7232 22.8 61.1392 22.8C61.5012 22.8 61.8652 22.734 62.2132 22.601C62.9612 22.314 63.5532 21.753 63.8802 21.022C64.2072 20.291 64.2292 19.475 63.9432 18.727C63.6562 17.978 63.0951 17.386 62.3641 17.06ZM62.0542 20.206C61.8292 20.709 61.2372 20.935 60.7332 20.712C60.4892 20.603 60.3022 20.405 60.2072 20.156C60.1112 19.906 60.1192 19.635 60.2282 19.39C60.3372 19.145 60.5342 18.959 60.7842 18.864C60.9002 18.82 61.0211 18.798 61.1411 18.798C61.2801 18.798 61.4182 18.827 61.5492 18.886C61.7932 18.995 61.9802 19.193 62.0752 19.442C62.1702 19.69 62.1632 19.962 62.0542 20.206Z" fill="currentColor"/>
<path d="M30.244 13.745C29.803 12.858 28.923 12.321 27.926 12.372L27.802 12.377C26.717 12.421 25.664 12.136 24.748 11.559L21.84 9.72298C21.21 9.32498 20.442 9.23098 19.735 9.46598C19.027 9.70098 18.467 10.237 18.2 10.934L17.781 12.027C17.267 13.37 16.751 14.417 16.157 15.321C14.396 18 14.641 20.566 16.829 22.362C18.57 23.792 19.49 24.697 19.955 25.205C20.431 25.724 21.092 26.001 21.77 26.001C22.113 26.001 22.46 25.93 22.79 25.783L24.98 24.805C25.067 24.766 25.163 24.754 25.255 24.77L26.111 24.916C26.945 25.057 27.783 24.77 28.354 24.146C28.925 23.523 29.139 22.663 28.926 21.846L28.828 21.47C28.37 19.715 28.785 17.83 29.94 16.423C30.569 15.658 30.686 14.632 30.244 13.745ZM28.391 15.159C26.835 17.055 26.275 19.602 26.893 21.973L26.991 22.349C27.049 22.57 26.947 22.723 26.881 22.794C26.815 22.866 26.674 22.986 26.447 22.942L25.59 22.796C25.108 22.713 24.613 22.776 24.165 22.978L21.976 23.956C21.785 24.041 21.566 23.999 21.431 23.852C20.691 23.044 19.57 22.023 18.1 20.816C16.738 19.697 16.647 18.218 17.83 16.419C18.505 15.391 19.084 14.222 19.65 12.741L20.069 11.647C20.14 11.462 20.286 11.389 20.366 11.363C20.403 11.35 20.456 11.338 20.52 11.338C20.594 11.338 20.683 11.356 20.773 11.413L23.683 13.249C24.942 14.043 26.392 14.43 27.882 14.374L28.006 14.369C28.276 14.369 28.412 14.551 28.454 14.635C28.495 14.72 28.573 14.938 28.391 15.159Z" fill="currentColor"/>
<path d="M22.6941 15.837C21.9441 15.55 21.1311 15.573 20.3991 15.9C19.6681 16.226 19.1071 16.819 18.8201 17.567C18.5341 18.315 18.5561 19.13 18.8831 19.863C19.3811 20.977 20.4791 21.639 21.6271 21.639C22.0351 21.639 22.4501 21.555 22.8461 21.378C23.5771 21.052 24.1381 20.459 24.4251 19.711C24.7111 18.963 24.6891 18.148 24.3621 17.416C24.0351 16.684 23.4431 16.123 22.6941 15.837ZM22.0291 19.552C21.5261 19.775 20.9331 19.55 20.7081 19.047C20.5991 18.803 20.5921 18.531 20.6871 18.281C20.7821 18.032 20.9691 17.835 21.2131 17.725C21.3451 17.666 21.4831 17.638 21.6191 17.638C22.0021 17.638 22.3681 17.859 22.5341 18.23C22.7601 18.734 22.5331 19.327 22.0291 19.552Z" fill="currentColor"/>
<path d="M19 31C18.448 31 18 31.447 18 32C18 32.553 18.448 33 19 33H20C20.552 33 21 32.553 21 32C21 31.447 20.552 31 20 31H19Z" fill="currentColor"/>
<path d="M34 11C33.448 11 33 11.447 33 12C33 12.553 33.448 13 34 13H35C35.552 13 36 12.553 36 12C36 11.447 35.552 11 35 11H34Z" fill="currentColor"/>
<path d="M63 34C62.448 34 62 34.447 62 35C62 35.553 62.448 36 63 36H64C64.552 36 65 35.553 65 35C65 34.447 64.552 34 64 34H63Z" fill="currentColor"/>
<path d="M22.926 54.372L22.802 54.377C21.718 54.423 20.664 54.137 19.748 53.559L16.84 51.723C16.21 51.325 15.442 51.231 14.735 51.466C14.027 51.701 13.467 52.237 13.2 52.934L12.781 54.028C12.267 55.371 11.751 56.418 11.157 57.322C9.39601 60 9.64101 62.566 11.829 64.362C13.57 65.792 14.49 66.697 14.955 67.205C15.431 67.724 16.092 68.001 16.77 68.001C17.113 68.001 17.46 67.93 17.79 67.783L19.98 66.805C20.067 66.766 20.162 66.753 20.255 66.77L21.111 66.916C21.944 67.058 22.783 66.77 23.354 66.146C23.925 65.523 24.139 64.663 23.926 63.846L23.828 63.47C23.37 61.715 23.785 59.83 24.94 58.423C25.568 57.657 25.685 56.631 25.243 55.744C24.803 54.858 23.92 54.32 22.926 54.372ZM23.391 57.159C21.835 59.055 21.275 61.602 21.893 63.973L21.991 64.349C22.049 64.57 21.947 64.723 21.881 64.794C21.815 64.866 21.674 64.986 21.447 64.942L20.59 64.796C20.108 64.713 19.613 64.777 19.165 64.978L16.976 65.956C16.783 66.043 16.564 66 16.43 65.854C15.69 65.046 14.569 64.025 13.099 62.818C11.737 61.699 11.646 60.22 12.829 58.421C13.504 57.393 14.083 56.224 14.649 54.743L15.068 53.649C15.139 53.464 15.285 53.391 15.365 53.365C15.402 53.352 15.455 53.34 15.519 53.34C15.593 53.34 15.682 53.358 15.772 53.415L18.682 55.251C19.942 56.045 21.387 56.437 22.881 56.376L23.005 56.371C23.278 56.376 23.412 56.553 23.453 56.637C23.494 56.721 23.573 56.938 23.391 57.159Z" fill="currentColor"/>
<path d="M17.6941 57.837C16.9451 57.55 16.1301 57.573 15.3991 57.9C14.6681 58.227 14.1071 58.819 13.8201 59.567C13.5341 60.315 13.5561 61.13 13.8831 61.863C14.3811 62.977 15.4791 63.639 16.6271 63.639C17.0351 63.639 17.4501 63.555 17.8461 63.378C18.5771 63.052 19.1381 62.459 19.4251 61.711C19.7111 60.963 19.6891 60.148 19.3621 59.416C19.0351 58.684 18.4431 58.123 17.6941 57.837ZM17.0291 61.552C16.5271 61.775 15.9331 61.55 15.7081 61.047C15.5991 60.803 15.5921 60.531 15.6871 60.281C15.7821 60.032 15.9691 59.835 16.2131 59.725C16.3451 59.666 16.4831 59.638 16.6191 59.638C17.0021 59.638 17.3681 59.859 17.5341 60.23C17.7601 60.734 17.5331 61.327 17.0291 61.552Z" fill="currentColor"/>
<path d="M37 64H36C35.448 64 35 64.447 35 65C35 65.553 35.448 66 36 66H37C37.552 66 38 65.553 38 65C38 64.447 37.552 64 37 64Z" fill="currentColor"/>
<path d="M11 46C11 46.553 11.448 47 12 47H13C13.552 47 14 46.553 14 46C14 45.447 13.552 45 13 45H12C11.448 45 11 45.447 11 46Z" fill="currentColor"/>
<path d="M42.5002 55.9997C37.6569 56.0027 33.1339 53.584 30.4441 49.558C27.7541 45.5321 27.2508 40.4265 29.1021 35.9517C30.9565 31.4773 34.9214 28.223 39.6732 27.2777C44.4219 26.3353 49.3292 27.8237 52.7545 31.2488C55.472 33.9695 57 37.6569 57 41.5032C57 45.3462 55.472 49.0337 52.7514 51.7544C50.0339 54.472 46.3463 55.9997 42.5002 55.9997ZM42.5002 29.1868C38.6726 29.1868 35.0614 30.968 32.731 34.0059C30.4009 37.0437 29.614 40.9904 30.6052 44.6904C31.5964 48.3871 34.2499 51.4157 37.7878 52.8795C41.3257 54.3433 45.3425 54.0812 48.6579 52.1658C51.9732 50.2535 54.2088 46.9045 54.709 43.11C55.2092 39.3127 53.916 35.5002 51.2077 32.7948C48.905 30.4767 45.7696 29.1777 42.5002 29.1868Z" fill="currentColor"/>
<path d="M65.2081 69H65.0455C63.7205 68.9548 62.4739 68.3582 61.6006 67.361L49.2761 53.1974C49.0834 52.9835 48.984 52.7003 49.0021 52.4111C49.0202 52.1218 49.1527 51.8537 49.3725 51.6639C49.5893 51.4741 49.8753 51.3776 50.1614 51.4017C50.4504 51.4228 50.7184 51.5584 50.9051 51.7814L63.2327 65.9388C63.7115 66.4901 64.395 66.8185 65.1237 66.8426C65.8524 66.8698 66.5601 66.5896 67.0749 66.0744C67.5898 65.5591 67.8698 64.8511 67.8428 64.122C67.8187 63.3929 67.4905 62.709 66.9394 62.2299L52.7872 49.8952C52.3385 49.5035 52.2903 48.8196 52.6848 48.3706C53.0762 47.9217 53.7568 47.8735 54.2055 48.2651L68.3577 60.603C69.8633 61.9136 70.3963 64.0227 69.6947 65.8937C68.9931 67.7647 67.2044 69.003 65.2081 69Z" fill="currentColor"/>
</svg>
