<svg width="80" height="80" viewBox="0 0 80 80" fill="none" xmlns="http://www.w3.org/2000/svg">
<path d="M40 30C39.082 30 38.3333 30.7487 38.3333 31.6667V38.3333H31.6667C30.7487 38.3333 30 39.082 30 40C30 40.918 30.7487 41.6667 31.6667 41.6667H38.3333V48.3333C38.3333 49.2513 39.082 50 40 50C40.918 50 41.6667 49.2513 41.6667 48.3333V41.6667H48.3333C49.2513 41.6667 50 40.918 50 40C50 39.082 49.2513 38.3333 48.3333 38.3333H41.6667V31.6667C41.6667 30.7487 40.918 30 40 30Z" fill="currentColor"/>
<path d="M56.3333 15H53.7333C52.7786 15 52 15.7786 52 16.7333C52 17.688 52.7786 18.4667 53.7333 18.4667H56.3333C59.2008 18.4667 61.5333 20.7992 61.5333 23.6667V26.2667C61.5333 27.2214 62.312 28 63.2667 28C64.2214 28 65 27.2214 65 26.2667V23.6667C65 18.8899 61.1101 15 56.3333 15Z" fill="currentColor"/>
<path d="M16.7333 28C17.6881 28 18.4667 27.2214 18.4667 26.2667V23.6667C18.4667 20.7992 20.7992 18.4667 23.6667 18.4667H26.2667C27.2214 18.4667 28 17.688 28 16.7333C28 15.7786 27.2214 15 26.2667 15H23.6667C18.8899 15 15 18.8899 15 23.6667V26.2667C15 27.2214 15.7786 28 16.7333 28Z" fill="currentColor"/>
<path d="M15 56.3333C15 61.1101 18.8899 65 23.6667 65H26.2667C27.2214 65 28 64.2214 28 63.2667C28 62.312 27.2214 61.5333 26.2667 61.5333H23.6667C20.7992 61.5333 18.4667 59.2008 18.4667 56.3333V53.7333C18.4667 52.7786 17.688 52 16.7333 52C15.7786 52 15 52.7786 15 53.7333V56.3333Z" fill="currentColor"/>
<path d="M53.7333 65H56.3333C61.1101 65 65 61.1101 65 56.3333V53.7333C65 52.7786 64.2214 52 63.2667 52C62.312 52 61.5333 52.7786 61.5333 53.7333V56.3333C61.5333 59.2008 59.2008 61.5333 56.3333 61.5333H53.7333C52.7786 61.5333 52 62.312 52 63.2667C52 64.2214 52.7786 65 53.7333 65Z" fill="currentColor"/>
</svg>
