<svg width="80" height="80" viewBox="0 0 80 80" fill="none" xmlns="http://www.w3.org/2000/svg">
<path d="M57.2979 35.5766C57.2979 35.4928 57.3119 35.4091 57.3119 35.3253C57.3119 30.1872 53.117 26.0055 47.9556 26.0055C46.8772 26.0055 45.8127 26.194 44.7972 26.557C43.3335 23.213 40.014 21 36.2393 21C31.9953 21 28.3186 23.9042 27.2261 27.8625C26.6169 27.7368 25.9936 27.674 25.3633 27.674C20.1949 27.674 16 31.8557 16 36.9938C16 40.7636 18.227 44.0726 21.5746 45.5247C21.2104 46.537 21.0213 47.5981 21.0213 48.6802C21.0213 53.8183 25.2162 58 30.3776 58C33.2279 58 35.8611 56.7294 37.6259 54.5583C38.4873 54.8096 39.3767 54.9492 40.2801 54.9492C43.3545 54.9492 46.1978 53.4204 47.9276 50.984C49.6714 52.7711 52.0805 53.8253 54.6437 53.8253C59.8051 53.8253 64 49.6436 64 44.5055C64 40.3517 61.1917 36.7285 57.2979 35.5766ZM54.5107 35.3253C54.5107 35.6813 54.4826 36.0513 54.4196 36.4283C54.3846 36.6168 54.3426 36.7983 54.3006 36.9868C54.2865 37.0426 54.2655 37.0985 54.2515 37.1543C54.2165 37.28 54.1815 37.3987 54.1395 37.5174C54.1185 37.5872 54.0905 37.65 54.0624 37.7128C54.0204 37.8175 53.9784 37.9223 53.9294 38.027C53.9014 38.0968 53.8664 38.1596 53.8313 38.2294C53.7823 38.3272 53.7333 38.4249 53.6773 38.5157C53.6423 38.5785 53.6002 38.6483 53.5652 38.7111C53.5092 38.8019 53.4532 38.8926 53.3901 38.9834C53.3481 39.0462 53.3061 39.1091 53.2571 39.1719C53.194 39.2557 53.131 39.3394 53.061 39.4232C53.012 39.4791 52.9699 39.5419 52.9209 39.5977C52.8509 39.6815 52.7739 39.7583 52.7038 39.8351C52.6548 39.8909 52.6058 39.9398 52.5498 39.9887C52.4727 40.0655 52.3887 40.1423 52.3046 40.2121C52.2556 40.2609 52.1996 40.3028 52.1506 40.3517C52.0595 40.4285 51.9615 40.5053 51.8634 40.5751C51.8144 40.61 51.7724 40.6449 51.7234 40.6798C51.5763 40.7845 51.4222 40.8823 51.2682 40.973C51.2542 40.98 51.2331 40.987 51.2191 41.0009C51.0791 41.0777 50.939 41.1545 50.7919 41.2243C50.7359 41.2523 50.6729 41.2732 50.6169 41.3011C50.5118 41.35 50.4068 41.3919 50.2947 41.4338C50.2247 41.4617 50.1547 41.4826 50.0776 41.5106C49.9796 41.5455 49.8745 41.5804 49.7765 41.6083C49.6994 41.6292 49.6224 41.6502 49.5384 41.6711C49.4403 41.6921 49.3423 41.72 49.2372 41.7409C49.1532 41.7549 49.0692 41.7689 48.9851 41.7828C48.9291 41.7898 48.8731 41.7968 48.817 41.8038C48.698 41.5385 48.5649 41.2802 48.4249 41.0358C48.2568 40.7426 48.0747 40.4634 47.8786 40.1911C47.8506 40.1562 47.8296 40.1143 47.8016 40.0794C47.6125 39.8281 47.4094 39.5838 47.1993 39.3534C47.1573 39.3115 47.1223 39.2696 47.0802 39.2277C46.8701 39.0043 46.646 38.7879 46.4079 38.5925C46.3659 38.5575 46.3239 38.5226 46.2749 38.4808C46.0298 38.2783 45.7847 38.0898 45.5255 37.9153C45.4975 37.8943 45.4625 37.8804 45.4345 37.8594C45.1824 37.6989 44.9303 37.5453 44.6641 37.4057C44.6221 37.3847 44.5801 37.3568 44.5381 37.3358C44.265 37.1962 43.9918 37.0775 43.7047 36.9658C43.6417 36.9379 43.5716 36.91 43.5086 36.8891C43.2285 36.7843 42.9484 36.7006 42.6612 36.6238C42.5912 36.6028 42.5142 36.5889 42.4441 36.5679C42.15 36.4981 41.8559 36.4423 41.5547 36.4004C41.5407 36.4004 41.5267 36.4004 41.5127 36.3934C41.4987 36.3306 41.4847 36.2677 41.4777 36.1979C41.4707 36.1351 41.4637 36.0723 41.4567 36.0164C41.4357 35.793 41.4146 35.5626 41.4146 35.3323C41.4146 35.0391 41.4357 34.7528 41.4707 34.4736C41.7018 32.7702 42.5982 31.2204 43.9568 30.1662C44.1039 30.0545 44.2579 29.9568 44.412 29.8591C44.5031 29.8032 44.5801 29.7334 44.6711 29.6845C45.6726 29.1051 46.8071 28.8049 47.9556 28.8049C51.5693 28.8049 54.5107 31.73 54.5107 35.3323V35.3253ZM36.2323 23.7925C38.9565 23.7925 41.3376 25.433 42.3111 27.8904C42.3041 27.8974 42.29 27.9043 42.283 27.9113C42.0309 28.1068 41.7928 28.3092 41.5617 28.5257C41.5197 28.5675 41.4777 28.6025 41.4357 28.6443C41.2116 28.8608 41.0015 29.0842 40.8054 29.3215C40.7704 29.3634 40.7353 29.4123 40.7003 29.4542C40.5042 29.6985 40.3151 29.9498 40.1401 30.2081C40.1191 30.236 40.105 30.2709 40.084 30.2989C39.916 30.5642 39.7549 30.8364 39.6148 31.1157C39.6008 31.1366 39.5938 31.1575 39.5798 31.1785C39.4397 31.4647 39.3137 31.7579 39.2016 32.0581C39.1806 32.107 39.1666 32.1558 39.1456 32.2047C39.0406 32.4979 38.9495 32.7911 38.8795 33.0913C38.8655 33.1472 38.8515 33.203 38.8375 33.2589C38.7674 33.566 38.7114 33.8732 38.6694 34.1874C38.6694 34.2292 38.6624 34.2781 38.6554 34.32C38.6204 34.6481 38.5994 34.9832 38.5994 35.3183C38.5994 35.6743 38.6204 36.0304 38.6624 36.3864C38.5573 36.4283 38.4523 36.4702 38.3402 36.5051C38.3052 36.5121 38.2702 36.526 38.2282 36.533C38.0111 36.6028 37.808 36.6587 37.6119 36.7006C37.5909 36.7006 37.5699 36.7006 37.5489 36.7145C36.5894 36.91 35.616 36.8891 34.6986 36.6657C34.6986 36.5889 34.6846 36.5121 34.6846 36.4423C34.6846 36.3515 34.6776 36.2608 34.6636 36.17C34.6495 36.0304 34.6355 35.8977 34.6145 35.7581C34.6005 35.6743 34.5935 35.5906 34.5795 35.5138C34.5515 35.3532 34.5235 35.1996 34.4885 35.0391C34.4745 34.9832 34.4675 34.9274 34.4535 34.8715C34.4044 34.6621 34.3484 34.4526 34.2854 34.2432C34.2714 34.1943 34.2504 34.1455 34.2364 34.0966C34.1873 33.943 34.1313 33.7825 34.0753 33.6289C34.0473 33.5591 34.0193 33.4892 33.9912 33.4194C33.9352 33.2868 33.8792 33.1611 33.8232 33.0355C33.7882 32.9587 33.7531 32.8889 33.7181 32.8191C33.6551 32.7004 33.5921 32.5747 33.529 32.456C33.487 32.3862 33.452 32.3164 33.41 32.2466C33.3399 32.1279 33.2629 32.0092 33.1859 31.8906C33.1439 31.8277 33.1018 31.7649 33.0598 31.7021C32.9688 31.5764 32.8777 31.4508 32.7867 31.3321C32.7517 31.2832 32.7167 31.2343 32.6746 31.1855C32.5486 31.0249 32.4085 30.8643 32.2685 30.7108C32.2685 30.7108 32.2615 30.6968 32.2544 30.6968C32.1004 30.5292 31.9463 30.3757 31.7782 30.2221C31.7572 30.2011 31.7362 30.1872 31.7152 30.1662C31.5751 30.0406 31.4351 29.9149 31.288 29.7892C31.239 29.7543 31.19 29.7125 31.1479 29.6775C31.0219 29.5798 30.8958 29.4821 30.7628 29.3913C30.7067 29.3494 30.6437 29.3075 30.5877 29.2726C30.4616 29.1889 30.3356 29.1051 30.2095 29.0283C30.1465 28.9864 30.0765 28.9515 30.0134 28.9096C29.9644 28.8817 29.9154 28.8468 29.8594 28.8189C30.5457 25.9357 33.1859 23.7855 36.2323 23.7855V23.7925ZM18.8013 36.9938C18.8013 33.3915 21.7426 30.4664 25.3563 30.4664C26.1897 30.4664 27.009 30.62 27.7864 30.9342C30.2865 31.9325 31.9043 34.313 31.9043 36.9938C31.9043 37.1823 31.9043 37.3708 31.8833 37.5662C31.7992 38.5366 31.5121 39.4442 31.0219 40.2749C29.8594 42.2855 27.6884 43.5281 25.3563 43.5281C24.838 43.5281 24.3198 43.4653 23.8156 43.3396C20.8602 42.6415 18.8013 40.0306 18.8013 36.9938ZM30.3776 55.2075C26.7639 55.2075 23.8226 52.2825 23.8226 48.6802C23.8226 47.8494 23.9837 47.0257 24.2918 46.2577C24.642 46.2996 24.9991 46.3206 25.3563 46.3206C25.5944 46.3206 25.8255 46.3066 26.0636 46.2926C26.1336 46.2926 26.2107 46.2787 26.2807 46.2717C26.4418 46.2577 26.6099 46.2368 26.7709 46.2089C26.848 46.1949 26.932 46.1809 27.009 46.167C27.1701 46.1391 27.3312 46.1042 27.4853 46.0692C27.5553 46.0553 27.6253 46.0343 27.6954 46.0204C27.9055 45.9645 28.1226 45.9017 28.3256 45.8319C28.3397 45.8319 28.3467 45.8319 28.3607 45.8249C28.5778 45.7481 28.7949 45.6643 29.012 45.5736C29.068 45.5457 29.131 45.5177 29.187 45.4968C29.3411 45.427 29.4952 45.3572 29.6423 45.2804C29.7123 45.2455 29.7753 45.2106 29.8383 45.1757C29.9854 45.0989 30.1255 45.0151 30.2655 44.9243C30.3216 44.8894 30.3846 44.8545 30.4406 44.8126C30.6157 44.7009 30.7908 44.5753 30.9589 44.4496C30.9729 44.4426 30.9869 44.4287 31.0009 44.4217C30.9869 44.5334 30.9799 44.6451 30.9659 44.7568C30.9589 44.8406 30.9448 44.9174 30.9448 45.0011C30.9308 45.2106 30.9238 45.42 30.9238 45.6294C30.9238 45.9785 30.9519 46.3275 30.9869 46.6696C30.9939 46.7325 31.0009 46.7953 31.0079 46.8581C31.0499 47.1862 31.1129 47.5074 31.19 47.8285C31.204 47.8913 31.225 47.9542 31.239 48.017C31.323 48.3451 31.4211 48.6592 31.5401 48.9734C31.5401 48.9874 31.5541 49.0013 31.5541 49.0153C31.6732 49.3155 31.8062 49.6087 31.9603 49.8949C31.9883 49.9508 32.0163 50.0066 32.0444 50.0625C32.1984 50.3417 32.3595 50.614 32.5416 50.8792C32.5836 50.9351 32.6256 50.9979 32.6676 51.0538C32.8567 51.3191 33.0528 51.5774 33.2699 51.8147C33.2909 51.8426 33.3189 51.8636 33.3399 51.8845C33.543 52.1079 33.7601 52.3243 33.9912 52.5268C34.0403 52.5757 34.0963 52.6245 34.1453 52.6664C34.3834 52.8758 34.6355 53.0643 34.8947 53.2528C34.9227 53.2738 34.9507 53.2947 34.9787 53.3157C33.7671 54.5164 32.1214 55.2075 30.3636 55.2075H30.3776ZM40.2801 52.1568C39.3767 52.1568 38.5013 51.9753 37.6679 51.6192C35.2798 50.5791 33.7321 48.2264 33.7321 45.6294C33.7321 44.3938 34.0823 43.193 34.7336 42.1458C35.546 40.8753 36.7645 39.9189 38.1722 39.4442C38.4453 39.3883 38.7184 39.3185 39.0055 39.2277C39.4187 39.144 39.8459 39.1021 40.2731 39.1021H40.3432C42.6682 39.123 44.8252 40.3936 45.9807 42.4181C46.0928 42.6066 46.1978 42.8091 46.2889 43.0185C46.3799 43.2279 46.457 43.4443 46.527 43.6677C46.527 43.6677 46.527 43.6677 46.527 43.6747C46.7231 44.296 46.8281 44.9523 46.8281 45.6225C46.8281 46.4043 46.6881 47.1792 46.4149 47.9192C45.4555 50.4464 42.9904 52.1498 40.2731 52.1498L40.2801 52.1568ZM54.6437 51.0328C52.4937 51.0328 50.4838 49.9717 49.2652 48.2264C49.2652 48.2055 49.2793 48.1775 49.2863 48.1566C49.3073 48.0868 49.3213 48.017 49.3423 47.9402C49.3843 47.7657 49.4263 47.5842 49.4613 47.4026C49.4753 47.3189 49.4893 47.2351 49.5034 47.1443C49.5314 46.9698 49.5594 46.7883 49.5734 46.6138C49.5804 46.537 49.5944 46.4602 49.6014 46.3834C49.6224 46.1321 49.6364 45.8808 49.6364 45.6225C49.6364 45.2874 49.6154 44.9523 49.5804 44.6242C49.5804 44.5823 49.5804 44.5474 49.5804 44.5055C49.5874 44.5055 49.6014 44.5055 49.6084 44.5055C49.6504 44.4985 49.6994 44.4845 49.7415 44.4775C49.9446 44.4357 50.1406 44.3938 50.3437 44.3449C50.4208 44.324 50.4978 44.303 50.5748 44.2821C50.7499 44.2332 50.918 44.1774 51.0861 44.1215C51.1561 44.1006 51.2261 44.0726 51.2892 44.0517C51.7514 43.8772 52.1996 43.6677 52.6198 43.4234C52.6758 43.3885 52.7318 43.3606 52.7809 43.3257C52.9419 43.2279 53.103 43.1232 53.2571 43.0185C53.3131 42.9836 53.3621 42.9487 53.4181 42.9068C53.6002 42.7742 53.7823 42.6415 53.9504 42.4949C53.9644 42.4809 53.9784 42.474 53.9924 42.46C54.1885 42.2994 54.3706 42.1249 54.5527 41.9434C54.5807 41.9155 54.6017 41.8945 54.6227 41.8666C54.7768 41.713 54.9238 41.5525 55.0639 41.3849C55.0989 41.343 55.1339 41.3081 55.1619 41.2662C55.302 41.0917 55.4421 40.9172 55.5751 40.7287C55.5891 40.7077 55.6031 40.6868 55.6172 40.6658C55.9113 40.247 56.1704 39.8002 56.3945 39.3325C56.4155 39.2906 56.4365 39.2487 56.4575 39.1998C56.5486 39.0043 56.6326 38.8019 56.7097 38.5925C56.7237 38.5506 56.7447 38.5087 56.7587 38.4668C56.7727 38.4249 56.7937 38.383 56.8077 38.3411C59.3779 39.2417 61.1987 41.6991 61.1987 44.5055C61.1987 48.1077 58.2574 51.0328 54.6437 51.0328Z" fill="currentColor"/>
</svg>
