<svg width="80" height="80" viewBox="0 0 80 80" fill="none" xmlns="http://www.w3.org/2000/svg" aria-label="Line drawing of a megakaryocyte among other cells">
<path d="M67.7215 44.7772C67.7215 43.605 67.56 42.4462 67.2396 41.3278C66.3235 38.1399 64.6289 36.3478 63.3898 35.0436C62.2645 33.8578 61.8436 33.4159 61.8382 32.0847C61.7985 25.8489 57.9938 20.459 52.3834 18.6805C44.9539 16.3199 37.2811 20.2866 34.9162 27.7026C34.8155 28.0125 34.4555 28.3224 33.9815 28.503C27.304 31.0281 22.62 37.2988 22.0588 44.4672C21.3598 53.352 26.9597 61.5497 35.3717 63.9477C35.5068 63.9827 35.7318 64.1606 35.9277 64.5352C38.0433 68.5234 42.1366 71 46.6033 71C47.2943 71 47.9986 70.938 48.6844 70.8194C52.4732 70.1565 55.754 67.6315 57.456 64.0798C57.6254 63.7268 57.9114 63.5085 58.1947 63.5085C64.3956 63.495 69.5745 58.6875 69.9744 52.5679C70.1571 49.7734 69.3575 47.0139 67.7318 44.7717L67.7215 44.7772ZM66.5882 52.3471C66.3023 56.6668 62.6087 60.0598 58.1766 60.0674C56.5906 60.0674 55.1396 61.0321 54.401 62.579C53.1751 65.139 50.8213 66.9526 48.0967 67.4295C47.6016 67.5185 47.0932 67.5616 46.5928 67.5616C43.3653 67.5616 40.4183 65.783 38.8983 62.905C38.2814 61.7462 37.352 60.9459 36.2744 60.6359C29.4142 58.6769 24.8519 51.9912 25.4212 44.7476C25.8819 38.9052 29.6973 33.7987 35.1492 31.7422C36.6214 31.1844 37.7042 30.1011 38.1305 28.7699C39.5682 24.2723 43.6007 21.4559 48.0591 21.4559C49.1447 21.4559 50.2541 21.6203 51.3608 21.9733C55.5627 23.3045 58.404 27.3817 58.4379 32.1081C58.4591 34.8137 59.6638 36.0829 60.9453 37.4331C62.0493 38.5999 63.2965 39.9177 63.9822 42.2837C64.2205 43.1245 64.3423 44.0083 64.329 44.8976C64.3211 45.5606 64.5329 46.2019 64.938 46.7409C66.1321 48.3335 66.7146 50.3223 66.5849 52.3299L66.5882 52.3471Z" fill="currentColor"/>
<path d="M23.324 60.8719C21.863 58.2099 18.5156 57.2176 15.8565 58.6671C14.5662 59.3667 13.6286 60.5291 13.2199 61.9423C12.8113 63.3472 12.9764 64.8245 13.679 66.1178C14.3815 67.4028 15.5486 68.345 16.9537 68.7659C17.4771 68.9219 18.0061 69 18.5378 69C19.4418 69 20.3375 68.7714 21.1464 68.3282C22.4367 67.6286 23.3743 66.4662 23.7829 65.0531C24.1496 63.7904 24.0488 62.4412 23.503 61.251C23.4471 61.1284 23.3883 61.0002 23.3155 60.8803L23.324 60.8719ZM21.7259 64.4537C21.474 65.3094 20.9086 66.0174 20.1277 66.4439C19.3468 66.8732 18.4371 66.9652 17.5835 66.7087C16.7242 66.4523 16.0133 65.8809 15.5766 65.0893C15.1456 64.3032 15.0476 63.3973 15.2911 62.536C15.543 61.6803 16.1084 60.9667 16.8893 60.5458C17.3903 60.2754 17.9361 60.1472 18.4735 60.1472C19.663 60.1472 20.8245 60.7827 21.4403 61.9032C21.4823 61.9757 21.5187 62.0538 21.555 62.1318C21.8909 62.8733 21.9497 63.6733 21.7258 64.4593L21.7259 64.4537Z" fill="currentColor"/>
<path d="M47.6352 51.4479C45.379 52.5886 44.3765 55.5625 45.4031 58.072C46.4298 60.5789 49.1063 61.6928 51.3648 60.5521C53.621 59.4114 54.6235 56.4375 53.5969 53.928C52.5702 51.4211 49.8937 50.3072 47.6352 51.4479ZM50.5918 58.6763C49.2633 59.35 47.6979 58.6978 47.0916 57.2189C46.4853 55.7427 47.0795 53.9954 48.4033 53.3297C49.7318 52.656 51.2972 53.3163 51.9035 54.7871C52.5098 56.2633 51.9156 58.0026 50.5918 58.6763Z" fill="currentColor"/>
<path d="M46.7312 43.7595C46.0445 42.2509 44.2604 41.5848 42.7595 42.2688C41.2509 42.9555 40.5848 44.7396 41.2688 46.2405C41.9555 47.7491 43.7396 48.4152 45.2405 47.7312C46.7491 47.0445 47.4152 45.2604 46.7312 43.7595ZM44.633 46.3936C43.8673 46.7408 42.9611 46.4013 42.6063 45.6355C42.2592 44.8697 42.5987 43.9636 43.3644 43.6088C44.1302 43.2616 45.0363 43.6011 45.3911 44.3669C45.7383 45.1327 45.3988 46.0388 44.633 46.3936Z" fill="currentColor"/>
<path d="M52.2203 37.4948C49.4617 38.7531 48.2366 42.0211 49.4948 44.7797C50.7531 47.5383 54.0211 48.7634 56.7797 47.5052C59.5383 46.2469 60.7634 42.9789 59.5052 40.2203C58.2469 37.4617 54.9789 36.2366 52.2203 37.4948ZM55.9646 45.722C54.1841 46.5294 52.0853 45.7423 51.2753 43.967C50.4679 42.1865 51.2549 40.0877 53.0303 39.2777C54.8107 38.4703 56.9095 39.2573 57.7195 41.0327C58.527 42.8132 57.7399 44.912 55.9646 45.722Z" fill="currentColor"/>
<path d="M39.5521 42.928C38.4114 40.4211 35.4375 39.3072 32.928 40.4479C30.4211 41.5886 29.3072 44.5625 30.4479 47.072C31.5886 49.5789 34.5625 50.6928 37.072 49.5521C39.5789 48.4114 40.6928 45.4375 39.5521 42.928ZM36.2185 47.6706C34.7423 48.3443 33.0031 47.6921 32.3293 46.2132C31.6557 44.737 32.3159 42.9897 33.7868 42.324C35.2576 41.6583 37.0103 42.3106 37.6759 43.7814C38.3496 45.2576 37.6894 46.9969 36.2185 47.6706Z" fill="currentColor"/>
<path d="M42.2405 38.7312C43.7491 38.0445 44.4152 36.2604 43.7312 34.7595C43.0445 33.2509 41.2604 32.5848 39.7595 33.2688C38.2509 33.9555 37.5848 35.7396 38.2688 37.2405C38.9555 38.7491 40.7396 39.4152 42.2405 38.7312ZM40.367 34.6089C41.1327 34.2617 42.0389 34.6012 42.3937 35.367C42.7459 36.1327 42.4013 37.0389 41.6356 37.3937C40.8698 37.7408 39.9637 37.4013 39.6089 36.6356C39.2617 35.8698 39.6012 34.9637 40.367 34.6089Z" fill="currentColor"/>
<path d="M18.8931 32C20.7398 32 22.5811 31.4242 24.1419 30.2752C26.3441 30.3458 28.4259 29.273 29.6847 27.4097C29.8958 27.0973 30.0802 26.7686 30.2326 26.421C30.9863 24.7587 31.0049 22.8465 30.3154 21.157C31.1786 19.4106 31.2321 17.3327 30.4384 15.5536C30.0348 14.6491 29.4201 13.8506 28.6584 13.2394C27.6402 12.4192 26.3948 11.9465 25.1067 11.876C24.7379 11.6614 24.3397 11.4876 23.9362 11.3463C22.3139 10.8031 21.0285 11.0258 20.2561 11.1589C20.1866 11.1725 20.1198 11.1806 20.0637 11.1942C17.4633 9.49661 14.1655 9.61613 11.8059 11.5066C8.81531 13.8995 8.14449 18.0498 10.1355 21.187C9.51284 24.4627 10.7101 27.8688 13.2624 29.9685C14.9033 31.3184 16.9023 31.992 18.8934 31.992L18.8931 32ZM13.9196 14.2473C14.5503 13.7394 15.3146 13.4896 16.103 13.4896C16.8887 13.4896 17.6156 13.7177 18.2918 14.1849C19.2833 14.8667 20.0636 14.7281 20.8226 14.6032C21.4239 14.5 22.0467 14.394 22.8618 14.6657C23.1344 14.7553 23.4016 14.8884 23.6421 15.0541L24.1071 15.38L24.6684 15.3583C25.3392 15.3365 26.0019 15.5538 26.5285 15.9776C26.8706 16.2492 27.1298 16.5968 27.3142 16.9989C27.7391 17.9441 27.6349 19.0767 27.0416 19.9622C26.6033 20.6168 26.5819 21.4643 26.9881 22.1677C27.4745 23.0369 27.5226 24.088 27.1191 24.9844C27.0442 25.1501 26.9561 25.3049 26.8598 25.4516C26.2238 26.405 25.1281 26.9183 24.0136 26.7934C23.4043 26.7309 22.8431 26.883 22.4261 27.2388C20.4084 28.95 17.4579 28.969 15.4135 27.2877C13.7645 25.9324 13.0402 23.6861 13.5588 21.5729C13.7378 20.8558 13.6122 20.1469 13.2087 19.6064C11.9419 17.9387 12.2573 15.5946 13.9196 14.2583L13.9196 14.2473Z" fill="currentColor"/>
<path d="M15.096 49.9745C14.8054 50.7524 15.1965 51.6134 15.9745 51.904C16.7524 52.1946 17.6134 51.8035 17.904 51.0255C18.1946 50.2476 17.8035 49.3866 17.0256 49.096C16.2476 48.8054 15.3866 49.1965 15.096 49.9745Z" fill="currentColor"/>
<path d="M41.0256 51.128C40.2476 50.7405 39.3866 51.262 39.096 52.2993C38.8054 53.3365 39.1965 54.4845 39.9745 54.872C40.7524 55.2595 41.6134 54.738 41.904 53.7007C42.1946 52.6635 41.8035 51.5155 41.0256 51.128Z" fill="currentColor"/>
<path d="M47.2993 32.872C48.3365 33.2595 49.4845 32.738 49.872 31.7007C50.2595 30.6635 49.738 29.5155 48.7007 29.128C47.6635 28.7405 46.5155 29.262 46.128 30.2993C45.7405 31.3365 46.262 32.4845 47.2993 32.872Z" fill="currentColor"/>
<path d="M18.3137 23.2405C19.1147 24.7491 21.1962 25.4152 22.9473 24.7312C24.7072 24.0445 25.4845 22.2604 24.6863 20.7595C23.8853 19.2509 21.8038 18.5848 20.0527 19.2688C18.2928 19.9555 17.5155 21.7396 18.3137 23.2405ZM20.7615 20.6064C21.6549 20.2592 22.712 20.5987 23.126 21.3645C23.531 22.1303 23.1349 23.0364 22.2415 23.3912C21.3481 23.7383 20.291 23.3989 19.877 22.6331C19.466 21.8673 19.8681 20.9612 20.7615 20.6064Z" fill="currentColor"/>
<path d="M16.9745 18.904C17.7524 19.1946 18.6134 18.8035 18.904 18.0255C19.1946 17.2476 18.8035 16.3866 18.0255 16.096C17.2476 15.8054 16.3866 16.1965 16.096 16.9744C15.8054 17.7524 16.1965 18.6134 16.9745 18.904Z" fill="currentColor"/>
</svg>
