<svg width="80" height="80" viewBox="0 0 80 80" fill="none" xmlns="http://www.w3.org/2000/svg">
<path d="M39.9998 69C32.3073 69 24.9324 65.9452 19.4935 60.5066C14.0545 55.068 11 47.6929 11 40.0004C11 32.3079 14.0548 24.9331 19.4935 19.4942C26.8199 12.1678 37.4977 9.30776 47.5049 11.9885C57.5121 14.6697 65.3299 22.4876 68.0113 32.4947C70.6925 42.5019 67.8319 53.1803 60.5056 60.506C55.0792 65.9618 47.6943 69.0189 39.9992 68.9994L39.9998 69ZM39.9998 12.9675C25.0922 12.9675 12.9661 25.0929 12.9661 40.001C12.9661 54.9091 25.0916 67.0346 39.9998 67.0346C54.9081 67.0346 67.0336 54.9091 67.0336 40.001C67.0336 25.0929 54.9081 12.9675 39.9998 12.9675Z" fill="currentColor"/>
<path d="M31.9994 60C30.3813 60 28.9236 59.0257 28.3045 57.531C27.6854 56.0362 28.0282 54.3171 29.1702 53.1726C30.3147 52.0282 32.0364 51.6853 33.531 52.3044C35.0233 52.9235 35.9975 54.3837 35.9975 55.9993H36C35.9975 58.2093 34.2069 59.9975 31.9994 60ZM31.9994 53.9767C31.1805 53.9767 30.4405 54.47 30.1273 55.2273C29.8141 55.9845 29.9867 56.8551 30.5663 57.4348C31.146 58.0144 32.0191 58.1871 32.7764 57.8738C33.5336 57.5606 34.0269 56.8206 34.0244 55.9992H34.0269C34.0244 54.8819 33.1167 53.9767 31.9994 53.9767Z" fill="currentColor"/>
<path d="M47.9993 41C46.3837 41 44.9235 40.0257 44.3044 38.531C43.6853 37.0362 44.0282 35.3171 45.1726 34.1726C46.3171 33.0282 48.0363 32.6853 49.531 33.3044C51.0257 33.9235 52 35.3837 52 36.9993C51.9975 39.2093 50.2093 40.9975 47.9993 41ZM47.9993 34.9767C47.1804 34.9767 46.4429 35.47 46.1272 36.2273C45.814 36.9845 45.9891 37.8551 46.5687 38.4348C47.1484 39.0144 48.0191 39.1871 48.7763 38.8738C49.5335 38.5606 50.0268 37.8206 50.0268 36.9992C50.0244 35.8819 49.1191 34.9767 47.9993 34.9767Z" fill="currentColor"/>
<path d="M43.0499 19H41.9477H41.9501C41.4252 19 41 18.5525 41 18C41 17.4475 41.4252 17 41.9501 17H43.0523H43.0499C43.5748 17 44 17.4475 44 18C44 18.5525 43.5748 19 43.0499 19Z" fill="currentColor"/>
<path d="M22.7342 35H21.2658C20.5665 35 20 34.5525 20 34C20 33.4475 20.5665 33 21.2658 33H22.7342C23.4335 33 24 33.4475 24 34C24 34.5525 23.4335 35 22.7342 35Z" fill="currentColor"/>
<path d="M36.0506 41H34.9494C34.4248 41 34 40.5525 34 40C34 39.4475 34.4248 39 34.9494 39H36.0506C36.5752 39 37 39.4475 37 40C37 40.5525 36.5752 41 36.0506 41Z" fill="currentColor"/>
<path d="M20.0499 52H18.9501C18.4252 52 18 51.55 18 51C18 50.4475 18.4252 50 18.9501 50H20.0523H20.0499C20.5748 50 21 50.4475 21 51C21 51.55 20.5748 52 20.0499 52Z" fill="currentColor"/>
<path d="M47.0483 62H45.9494C45.4248 62 45 61.5525 45 61C45 60.4475 45.4248 60 45.9494 60H47.0506C47.5728 60 48 60.4475 48 61C48 61.5525 47.5728 62 47.0506 62H47.0483Z" fill="currentColor"/>
<path d="M53.0499 53H51.9477H51.9501C51.4252 53 51 52.5525 51 52C51 51.45 51.4252 51 51.9501 51H53.0523H53.0499C53.5748 51 54 51.45 54 52C54 52.5525 53.5748 53 53.0499 53Z" fill="currentColor"/>
<path d="M59.0459 30H57.9494C57.4248 30 57 29.5525 57 29C57 28.4475 57.4248 28 57.9494 28H59.0506C59.5752 28 60 28.4475 60 29C60 29.5525 59.5752 30 59.0506 30H59.0459Z" fill="currentColor"/>
<path d="M33.0506 24H31.9494C31.4272 24 31 23.5525 31 23C31 22.4475 31.4272 22 31.9494 22H33.0506C33.5752 22 34 22.4475 34 23C34 23.5525 33.5752 24 33.0506 24Z" fill="currentColor"/>
</svg>
