<svg width="80" height="80" viewBox="0 0 80 80" fill="none" xmlns="http://www.w3.org/2000/svg" aria-label="Line drawing of a bone marrow sample squashed on a microscope slide, with the sample highlighted">
<mask id="path-2-inside-1_66_444" fill="white">
<path fill-rule="evenodd" clip-rule="evenodd" d="M15.0484 31.184C15.1032 31.143 15.1579 31.102 15.2127 31.061C19.2927 28.001 24.0527 27.321 31.1927 28.001C32.3413 28.1103 33.4867 28.2006 34.6319 28.2907C40.6056 28.7612 46.5731 29.2312 52.9527 32.421C56.5103 34.1998 59.5141 35.0807 61.9362 35.791C66.4586 37.1173 68.9535 37.8489 69.24 42.72C69.54 47.82 53.2927 51.801 49.8927 51.461C46.4927 51.121 39.2276 50.5423 33.2327 52.141C28.1327 53.501 21.3327 52.481 17.2527 51.121C14.7113 50.2738 11.4726 47.3809 10.7926 41.261C10.4604 34.6174 12.7246 32.923 15.0484 31.184ZM18.9199 41.9775C18.9199 36.5375 19.5999 36.3108 22.9999 35.1775C23.2022 35.1101 23.4279 35.0293 23.6734 34.9414C25.9033 34.143 29.7634 32.761 32.5199 35.5175C33.5555 36.5531 34.5522 37.1604 35.3649 37.6556C36.9537 38.6235 37.8396 39.1633 36.9399 41.6375C35.2057 46.4067 33.5556 46.3148 30.3576 46.1368C29.6797 46.0991 28.9324 46.0575 28.0999 46.0575C26.9721 46.0575 25.8635 46.2102 24.8281 46.3528C21.4936 46.812 18.9199 47.1664 18.9199 41.9775Z"/>
</mask>
<path fill-rule="evenodd" clip-rule="evenodd" d="M15.0484 31.184C15.1032 31.143 15.1579 31.102 15.2127 31.061C19.2927 28.001 24.0527 27.321 31.1927 28.001C32.3413 28.1103 33.4867 28.2006 34.6319 28.2907C40.6056 28.7612 46.5731 29.2312 52.9527 32.421C56.5103 34.1998 59.5141 35.0807 61.9362 35.791C66.4586 37.1173 68.9535 37.8489 69.24 42.72C69.54 47.82 53.2927 51.801 49.8927 51.461C46.4927 51.121 39.2276 50.5423 33.2327 52.141C28.1327 53.501 21.3327 52.481 17.2527 51.121C14.7113 50.2738 11.4726 47.3809 10.7926 41.261C10.4604 34.6174 12.7246 32.923 15.0484 31.184ZM18.9199 41.9775C18.9199 36.5375 19.5999 36.3108 22.9999 35.1775C23.2022 35.1101 23.4279 35.0293 23.6734 34.9414C25.9033 34.143 29.7634 32.761 32.5199 35.5175C33.5555 36.5531 34.5522 37.1604 35.3649 37.6556C36.9537 38.6235 37.8396 39.1633 36.9399 41.6375C35.2057 46.4067 33.5556 46.3148 30.3576 46.1368C29.6797 46.0991 28.9324 46.0575 28.0999 46.0575C26.9721 46.0575 25.8635 46.2102 24.8281 46.3528C21.4936 46.812 18.9199 47.1664 18.9199 41.9775Z" fill="currentColor"/>
<path d="M15.2127 31.061L16.4127 32.661L16.4127 32.661L15.2127 31.061ZM15.0484 31.184L13.8501 29.5827L13.8501 29.5827L15.0484 31.184ZM31.1927 28.001L31.0031 29.992L31.1927 28.001ZM34.6319 28.2907L34.7889 26.2969L34.6319 28.2907ZM52.9527 32.421L53.8471 30.6321L53.8471 30.6321L52.9527 32.421ZM61.9362 35.791L61.3734 37.7102L61.9362 35.791ZM69.24 42.72L71.2366 42.6026L69.24 42.72ZM33.2327 52.141L32.7174 50.2085L33.2327 52.141ZM17.2527 51.121L17.8852 49.2236V49.2236L17.2527 51.121ZM10.7926 41.261L8.79508 41.3608L8.79811 41.4215L8.80481 41.4818L10.7926 41.261ZM22.9999 35.1775L23.6323 37.0749L23.6323 37.0749L22.9999 35.1775ZM23.6734 34.9414L22.9993 33.0584L22.9993 33.0584L23.6734 34.9414ZM32.5199 35.5175L33.9341 34.1033V34.1033L32.5199 35.5175ZM35.3649 37.6556L34.3243 39.3635L35.3649 37.6556ZM36.9399 41.6375L35.0603 40.954V40.954L36.9399 41.6375ZM30.3576 46.1368L30.4687 44.1399H30.4687L30.3576 46.1368ZM24.8281 46.3528L24.5553 44.3715H24.5553L24.8281 46.3528ZM14.0127 29.461C13.9589 29.5013 13.905 29.5417 13.8501 29.5827L16.2467 32.7853C16.3013 32.7444 16.357 32.7028 16.4127 32.661L14.0127 29.461ZM31.3823 26.01C24.0528 25.3119 18.6829 25.9584 14.0127 29.461L16.4127 32.661C19.9025 30.0437 24.0526 29.33 31.0031 29.992L31.3823 26.01ZM34.7889 26.2969C33.6411 26.2065 32.5119 26.1176 31.3823 26.01L31.0031 29.992C32.1707 30.1031 33.3324 30.1946 34.4749 30.2846L34.7889 26.2969ZM53.8471 30.6321C47.0774 27.2472 40.7433 26.7658 34.7889 26.2969L34.4749 30.2846C40.4678 30.7565 46.0688 31.2151 52.0583 34.2098L53.8471 30.6321ZM62.4991 33.8718C60.0883 33.1649 57.2329 32.325 53.8471 30.6321L52.0583 34.2098C55.7878 36.0746 58.9399 36.9965 61.3734 37.7102L62.4991 33.8718ZM71.2366 42.6026C71.0713 39.7938 70.2227 37.769 68.4084 36.3506C66.815 35.1048 64.6253 34.4954 62.4991 33.8718L61.3734 37.7102C63.7696 38.4129 65.0885 38.8324 65.9447 39.5018C66.5801 39.9986 67.1222 40.7751 67.2435 42.8375L71.2366 42.6026ZM49.6937 53.451C50.8743 53.5691 52.7925 53.3211 54.79 52.9159C56.8718 52.4935 59.3048 51.8438 61.627 51.0138C63.9267 50.1919 66.2289 49.1541 67.9766 47.918C69.5955 46.7729 71.3775 44.9989 71.2366 42.6026L67.2435 42.8375C67.2525 42.9911 67.1161 43.6272 65.6668 44.6523C64.3462 45.5864 62.4304 46.4789 60.2807 47.2472C58.1536 48.0074 55.906 48.608 53.9946 48.9958C51.9989 49.4007 50.6112 49.5228 50.0917 49.4709L49.6937 53.451ZM33.748 54.0734C39.3526 52.5789 46.2849 53.1102 49.6937 53.451L50.0917 49.4709C46.7005 49.1318 39.1027 48.5057 32.7174 50.2085L33.748 54.0734ZM16.6203 53.0183C20.901 54.4452 28.1278 55.5722 33.748 54.0734L32.7174 50.2085C28.1376 51.4298 21.7645 50.5167 17.8852 49.2236L16.6203 53.0183ZM8.80481 41.4818C9.56037 48.2817 13.2518 51.8955 16.6203 53.0183L17.8852 49.2236C16.1708 48.6521 13.3848 46.4802 12.7803 41.0401L8.80481 41.4818ZM13.8501 29.5827C12.7115 30.4348 11.2237 31.5208 10.175 33.4142C9.11838 35.3218 8.61784 37.816 8.79508 41.3608L12.7901 41.1611C12.6351 38.0624 13.1006 36.3876 13.6741 35.3523C14.2553 34.303 15.0616 33.6722 16.2467 32.7853L13.8501 29.5827ZM22.3674 33.2801C21.5621 33.5486 20.7367 33.8196 20.0477 34.1573C19.3057 34.521 18.582 35.0246 18.029 35.8408C17.4961 36.6276 17.2395 37.5328 17.1001 38.4917C16.9615 39.4448 16.9199 40.5979 16.9199 41.9775H20.9199C20.9199 40.6371 20.9633 39.7219 21.0585 39.0671C21.1528 38.418 21.2787 38.1758 21.3407 38.0842C21.3828 38.0221 21.4666 37.9165 21.8083 37.749C22.2031 37.5555 22.7376 37.3731 23.6323 37.0749L22.3674 33.2801ZM22.9993 33.0584C22.7481 33.1483 22.5446 33.2211 22.3674 33.2801L23.6323 37.0749C23.8598 36.9991 24.1078 36.9102 24.3476 36.8243L22.9993 33.0584ZM33.9341 34.1033C32.0381 32.2073 29.7554 31.7746 27.7726 31.9004C25.8611 32.0216 24.0831 32.6704 22.9993 33.0584L24.3476 36.8243C25.4936 36.414 26.7606 35.9726 28.0257 35.8924C29.2195 35.8167 30.2451 36.0712 31.1057 36.9317L33.9341 34.1033ZM36.4055 35.9476C35.6033 35.4588 34.7869 34.9561 33.9341 34.1033L31.1057 36.9317C32.3241 38.1501 33.5011 38.8619 34.3243 39.3635L36.4055 35.9476ZM38.8195 42.321C39.3299 40.9175 39.5689 39.4608 38.8423 38.1256C38.506 37.5078 38.0412 37.072 37.6287 36.7541C37.232 36.4483 36.7764 36.1735 36.4055 35.9476L34.3243 39.3635C34.7479 39.6216 34.9987 39.7772 35.1869 39.9222C35.3592 40.0551 35.3575 40.0904 35.3289 40.0377C35.2175 39.833 35.4496 39.8833 35.0603 40.954L38.8195 42.321ZM30.2464 48.1337C31.6739 48.2132 33.5181 48.3747 35.1416 47.5056C36.8529 46.5893 37.9149 44.8087 38.8195 42.321L35.0603 40.954C34.2307 43.2355 33.6004 43.7935 33.2537 43.9792C32.8191 44.2118 32.2392 44.2385 30.4687 44.1399L30.2464 48.1337ZM28.0999 48.0575C28.8696 48.0575 29.5651 48.0958 30.2464 48.1337L30.4687 44.1399C29.7943 44.1024 28.9951 44.0575 28.0999 44.0575V48.0575ZM25.101 48.3341C26.1562 48.1888 27.131 48.0575 28.0999 48.0575V44.0575C26.8132 44.0575 25.5707 44.2316 24.5553 44.3715L25.101 48.3341ZM16.9199 41.9775C16.9199 44.7717 17.6082 47.0671 19.7668 48.0904C20.7044 48.5349 21.6999 48.6119 22.5453 48.592C23.3912 48.5721 24.2971 48.4448 25.101 48.3341L24.5553 44.3715C23.6919 44.4904 23.0256 44.5796 22.4511 44.5931C21.8761 44.6067 21.6029 44.5341 21.4803 44.476C21.4293 44.4518 21.3329 44.4099 21.2144 44.1315C21.0685 43.7888 20.9199 43.1392 20.9199 41.9775H16.9199Z" fill="currentColor" mask="url(#path-2-inside-1_66_444)"/>
<path d="M7 25.72C7 24.7701 7.77007 24 8.72 24H71.28C72.2299 24 73 24.7701 73 25.72V54.28C73 55.2299 72.2299 56 71.28 56H8.72C7.77007 56 7 55.2299 7 54.28V25.72Z" stroke="currentColor" stroke-width="2"/>
</svg>
