<svg width="40" height="40" viewBox="0 0 32 32" fill="none" xmlns="http://www.w3.org/2000/svg">
<path d="M28.7549 12.9388C28.0942 12.9388 27.4833 13.1492 26.9833 13.5064L18.4935 5.01659C18.8506 4.5166 19.0611 3.90563 19.0611 3.2449C19.0611 1.55739 17.6874 0.183674 15.9999 0.183674C14.3123 0.183674 12.9386 1.55739 12.9386 3.2449C12.9386 3.42985 12.9565 3.61097 12.9871 3.787L5.91052 6.3342C5.38501 5.40434 4.38755 4.77554 3.2447 4.77554C1.55719 4.77554 0.183472 6.14926 0.183472 7.83677C0.183472 9.52428 1.55719 10.898 3.2447 10.898C3.9054 10.898 4.51637 10.6875 5.01639 10.3304L10.6859 15.9999L5.01639 21.6695C4.5164 21.3123 3.90543 21.1019 3.2447 21.1019C1.55719 21.1019 0.183472 22.4756 0.183472 24.1631C0.183472 25.8506 1.55719 27.2243 3.2447 27.2243C4.38755 27.2243 5.38501 26.5955 5.91052 25.6657L12.9871 28.2129C12.9565 28.3889 12.9386 28.57 12.9386 28.755C12.9386 30.4425 14.3123 31.8162 15.9999 31.8162C17.6874 31.8162 19.0611 30.4425 19.0611 28.755C19.0611 28.0943 18.8506 27.4833 18.4935 26.9833L26.9833 18.4935C27.4832 18.8506 28.0942 19.0611 28.7549 19.0611C30.4425 19.0611 31.8162 17.6874 31.8162 15.9999C31.8162 14.3124 30.4425 12.9388 28.7549 12.9388ZM13.9592 20.592C13.9592 19.467 14.875 18.5512 16 18.5512C17.125 18.5512 18.0408 19.467 18.0408 20.592C18.0408 21.717 17.125 22.6328 16 22.6328C14.875 22.6328 13.9592 21.717 13.9592 20.592ZM16 17.5308C15.3393 17.5308 14.7283 17.7412 14.2283 18.0984L12.1301 16.0002L14.2283 13.9019C14.7283 14.2591 15.3393 14.4696 16 14.4696C17.1429 14.4696 18.1403 13.8407 18.6658 12.9109L25.7424 15.4581C25.7105 15.6341 25.6939 15.8152 25.6939 16.0002C25.6939 16.1851 25.7118 16.3663 25.7424 16.5423L18.6658 19.0895C18.1403 18.1609 17.1429 17.5308 16 17.5308ZM16 13.4491C14.875 13.4491 13.9592 12.5333 13.9592 11.4083C13.9592 10.2833 14.875 9.36751 16 9.36751C17.125 9.36751 18.0408 10.2833 18.0408 11.4083C18.0408 12.5333 17.125 13.4491 16 13.4491ZM16 1.20425C17.125 1.20425 18.0408 2.12007 18.0408 3.24506C18.0408 4.37006 17.125 5.28588 16 5.28588C14.875 5.28588 13.9592 4.37006 13.9592 3.24506C13.9592 2.12007 14.875 1.20425 16 1.20425ZM13.3342 4.74776C13.8597 5.67762 14.8572 6.30642 16 6.30642C16.6607 6.30642 17.2717 6.09596 17.7717 5.73881L26.2615 14.2286C26.199 14.3153 26.1416 14.4059 26.0893 14.499L19.0127 11.9505C19.0446 11.7745 19.0612 11.5934 19.0612 11.4084C19.0612 9.72092 17.6875 8.34721 16 8.34721C14.778 8.34721 13.7219 9.06659 13.2321 10.1036L6.28942 8.15971C6.3009 8.05385 6.306 7.9467 6.306 7.83701C6.306 7.65206 6.28814 7.47094 6.25753 7.2949L13.3342 4.74776ZM1.20423 7.83703C1.20423 6.71203 2.12005 5.79621 3.24504 5.79621C4.37004 5.79621 5.28586 6.71203 5.28586 7.83703C5.28586 8.96202 4.37004 9.87784 3.24504 9.87784C2.12005 9.87784 1.20423 8.96202 1.20423 7.83703ZM5.73876 9.60872C5.84335 9.46203 5.93518 9.30642 6.01299 9.14188L12.9557 11.0857C12.9455 11.1916 12.9391 11.3 12.9391 11.4085C12.9391 12.0692 13.1496 12.6801 13.5067 13.1801L11.4085 15.2784L5.73876 9.60872ZM13.5066 18.8205C13.1494 19.3205 12.939 19.9314 12.939 20.5922C12.939 20.7006 12.9454 20.809 12.9556 20.9149L6.01287 22.8587C5.93507 22.6942 5.84323 22.5386 5.73864 22.3919L11.4082 16.7223L13.5066 18.8205ZM3.24504 26.2043C2.12005 26.2043 1.20423 25.2885 1.20423 24.1635C1.20423 23.0385 2.12005 22.1227 3.24504 22.1227C4.37004 22.1227 5.28586 23.0385 5.28586 24.1635C5.28586 25.2885 4.37004 26.2043 3.24504 26.2043ZM6.25781 24.7056C6.2897 24.5296 6.30628 24.3484 6.30628 24.1635C6.30628 24.0551 6.2999 23.9467 6.2897 23.8408L13.2324 21.8969C13.7222 22.9339 14.7783 23.6533 16.0003 23.6533C17.6878 23.6533 19.0615 22.2796 19.0615 20.5921C19.0615 20.4071 19.0436 20.226 19.013 20.05L26.0896 17.5028C26.1419 17.5959 26.1993 17.6864 26.2618 17.7732L17.772 26.263C17.272 25.9045 16.661 25.6941 16.0003 25.6941C14.8574 25.6941 13.86 26.3229 13.3345 27.2528L6.25781 24.7056ZM16.0002 30.796C14.8752 30.796 13.9594 29.8802 13.9594 28.7552C13.9594 27.6302 14.8752 26.7144 16.0002 26.7144C17.1252 26.7144 18.041 27.6302 18.041 28.7552C18.041 29.8802 17.1252 30.796 16.0002 30.796ZM28.7551 18.0411C27.6301 18.0411 26.7143 17.1253 26.7143 16.0003C26.7143 14.8753 27.6301 13.9595 28.7551 13.9595C29.8801 13.9595 30.7959 14.8753 30.7959 16.0003C30.7959 17.1253 29.8801 18.0411 28.7551 18.0411Z" fill="currentColor"/>
</svg>
