<svg width="40" height="40" viewBox="0 0 40 40" fill="none" xmlns="http://www.w3.org/2000/svg">
<path d="M27.9955 35.6605H6.90364C6.55208 35.6605 6.26801 35.3746 6.26801 35.023V0.68168C6.26801 0.330116 6.5521 0.0460434 6.90364 0.0460434H25.6359C25.9875 0.0460434 26.2716 0.330134 26.2716 0.68168C26.2716 1.03323 25.9875 1.31732 25.6359 1.31732H7.53955V34.3873H27.9941C28.3439 34.3873 28.6297 34.6714 28.6297 35.023C28.6297 35.3745 28.3439 35.6604 27.9941 35.6604L27.9955 35.6605Z" fill="currentColor"/>
<path d="M31.8786 34.1264C31.5271 34.1264 31.2412 33.8423 31.2412 33.4907V8.17481C31.2412 7.82325 31.5271 7.53918 31.8786 7.53918C32.2284 7.53918 32.5143 7.82327 32.5143 8.17481V33.4907C32.5143 33.6594 32.4468 33.821 32.3278 33.9399C32.2089 34.0589 32.0473 34.1264 31.8786 34.1264Z" fill="currentColor"/>
<path d="M19.3891 32.2318C16.5695 32.2336 13.9363 30.8256 12.3704 28.4818C10.8044 26.1381 10.5114 23.1659 11.5892 20.5609C12.6687 17.9561 14.9769 16.0616 17.7433 15.5114C20.5078 14.9627 23.3646 15.8292 25.3587 17.8231C26.9408 19.407 27.8303 21.5536 27.8303 23.7927C27.8303 26.0299 26.9408 28.1766 25.3569 29.7604C23.7749 31.3425 21.6281 32.2318 19.3891 32.2318ZM19.3891 16.6227C17.1608 16.6227 15.0585 17.6596 13.7018 19.4281C12.3453 21.1966 11.8872 23.4942 12.4642 25.6481C13.0413 27.8001 14.586 29.5633 16.6457 30.4154C18.7053 31.2676 21.0438 31.115 22.9739 29.9999C24.9039 28.8867 26.2054 26.9371 26.4966 24.7281C26.7878 22.5175 26.0349 20.2981 24.4582 18.7231C23.1177 17.3737 21.2923 16.6174 19.3891 16.6227Z" fill="currentColor"/>
<path d="M32.7273 39.9536H32.6314C31.8501 39.927 31.1151 39.5754 30.6001 38.9877L23.3329 30.6409C23.2192 30.5148 23.1606 30.3479 23.1713 30.1775C23.1819 30.007 23.2601 29.849 23.3897 29.7372C23.5175 29.6253 23.6862 29.5685 23.8549 29.5827C24.0253 29.5951 24.1833 29.675 24.2934 29.8064L31.5625 38.1496C31.8448 38.4745 32.2479 38.668 32.6776 38.6823C33.1072 38.6982 33.5245 38.5331 33.8281 38.2295C34.1317 37.9259 34.2968 37.5086 34.2809 37.079C34.2667 36.6493 34.0731 36.2462 33.7482 35.9639L25.4032 28.6948C25.1386 28.464 25.1102 28.061 25.3428 27.7964C25.5736 27.5318 25.9749 27.5034 26.2395 27.7342L34.5845 35.0051C35.4723 35.7775 35.7865 37.0204 35.3729 38.123C34.9592 39.2257 33.9045 39.9554 32.7273 39.9536Z" fill="currentColor"/>
<path d="M31.8786 8.81046H25.6341C25.2825 8.81046 24.9966 8.52637 24.9966 8.17482V0.682093C24.9966 0.413984 25.1635 0.174275 25.4157 0.0819572C25.6678 -0.0103746 25.9519 0.0659766 26.1224 0.273716L32.3669 7.76826C32.5267 7.95647 32.5604 8.22103 32.4557 8.44654C32.3509 8.67026 32.1254 8.81408 31.8786 8.8123L31.8786 8.81046ZM26.2713 7.53737H30.5203L26.2696 2.43964L26.2713 7.53737Z" fill="currentColor"/>
<path d="M20.9518 5.0641H11.5873C11.2357 5.0641 10.9517 4.78001 10.9517 4.42846C10.9517 4.0769 11.2358 3.79282 11.5873 3.79282H20.9518C21.3016 3.79282 21.5875 4.07691 21.5875 4.42846C21.5875 4.78002 21.3016 5.0641 20.9518 5.0641Z" fill="currentColor"/>
<path d="M27.1946 13.2864H11.5855C11.2339 13.2864 10.9481 13.0005 10.9481 12.649C10.9481 12.2974 11.2339 12.0133 11.5855 12.0133H27.1946C27.5461 12.0133 27.832 12.2974 27.832 12.649C27.832 13.0005 27.5461 13.2864 27.1946 13.2864Z" fill="currentColor"/>
<path d="M20.9818 8.81045H11.5855C11.2339 8.81045 10.9481 8.52636 10.9481 8.17481C10.9481 7.82327 11.2339 7.53918 11.5855 7.53918H20.9818C21.3334 7.53918 21.6192 7.82327 21.6192 8.17481C21.6192 8.52636 21.3334 8.81045 20.9818 8.81045Z" fill="currentColor"/>
<path d="M23.3664 21.7009H15.4118C15.062 21.7009 14.7762 21.415 14.7762 21.0635C14.7762 20.7119 15.0621 20.4279 15.4118 20.4279H23.3664C23.7179 20.4279 24.0038 20.7119 24.0038 21.0635C24.0038 21.4151 23.7179 21.7009 23.3664 21.7009Z" fill="currentColor"/>
<path d="M23.3664 24.4282H15.4118C15.062 24.4282 14.7762 24.1423 14.7762 23.7908C14.7762 23.4392 15.0621 23.1551 15.4118 23.1551H23.3664C23.7179 23.1551 24.0038 23.4392 24.0038 23.7908C24.0038 24.1423 23.7179 24.4282 23.3664 24.4282Z" fill="currentColor"/>
<path d="M23.3664 27.1554H15.4118C15.062 27.1554 14.7762 26.8696 14.7762 26.518C14.7762 26.1665 15.0621 25.8824 15.4118 25.8824H23.3664C23.7179 25.8824 24.0038 26.1665 24.0038 26.518C24.0038 26.8696 23.7179 27.1554 23.3664 27.1554Z" fill="currentColor"/>
</svg>
