<svg xmlns="http://www.w3.org/2000/svg" id="Layer_2" data-name="Layer 2" viewBox="0 0 1473.577 1151.514">
  <defs>
    <style>
      .cls-1{fill:#c896c6}
    </style>
  </defs>
  <g id="test">
    <path d="M1202.59 908.21v183.8h11.189v5.07h18.06v-5.07h13.75v-14.49h17.19v14.49h5.7v10.07h17.85v-14.46h13.02v14.46h23.61v-10.07h17.19v-14.49h15.47v14.49h21.49v5.07h14.35V908.21zm4.819 170.48v-14.8h14.81v14.8zm115.55 3.98h-12.04v-12.03h12.04zM1331.24 716.6h142.338v142.338H1331.24zM1197.113 782.294h88.961v88.961h-88.961zM1299.002 535.181h99.301v99.301h-99.301zM1362.718 400.445h61.589v61.589h-61.589zM1217.643 438.767h64.657v64.657h-64.657zM1297.024 347.069h41.059v41.059h-41.059zM1098.714 648.788h85.109v85.109h-85.109zM1228.592 668.698h58.851v58.851h-58.851zM1015.085 984.852h105.385v105.385h-105.385zM761.018 876.063h140.969v140.969H761.018zM871.269 1041.72v78.88h19.82v16.93h46.49v-4.3h6.59v-7.65h16.05v7.65h6.86v-91.51zm35.35 78.74h11.17v11.17h-11.17zM445.729 983.48v124.09h5.24v-13.21h18.05v16.21h12.2v2.93h53.13v-2.93h10.04v.38h8.31v-12.9h15.48v12.52h7.57V983.48zm66.28 111.14h-6.01v-6.02h6.01zm-12.89 16.61h-11.75v-11.74h11.75zm-43.02.99h8.99v-8.99h-8.99zM401.937 826.09h86.224v86.224h-86.224zM299.29 891.785h71.169v71.169H299.29zM67.679 812.564h65.417v65.417H67.679zM453.945 574.262h52.008v52.008h-52.008zM1208.062 263.582h47.902v47.902h-47.902zM1399.431 240.315h57.723v57.723h-57.723zM1255.997 99.333h41.059v41.059h-41.059zM1366.664 0h31.529v31.529h-31.529zM161.333 401.999h41.059v41.059h-41.059zM205.333 620.665h41.059v41.059h-41.059zM148 977.998h77.41v77.41H148zM0 1064.664h41.059v41.059H0zM1002.696 844.17h58.363v58.363h-58.363zM677.332 333.999h41.059v41.059h-41.059zM717.332 592.665h63.915v63.915h-63.915zM459.56 1127.883h10.315v10.315H459.56zM492.714 1126.294h9.206v9.206h-9.206zM547.478 1115.055h20.889v20.889h-20.889zM574.811 1133.278h10.667v10.667h-10.667zM508.895 1142.403h9.111v9.111h-9.111z" class="cls-1"/>
    <path d="M481.117 1111.43h52.667v10.889h-52.667zM1213.779 1082.68h18.06v18.06h-18.06zM1268.488 1100.764h54.465v6.836h-54.465zM1356.337 1078.764h25.667v12.667h-25.667z" class="cls-1"/>
    <path d="M1377.109 1054.431h14.288v67.789h-14.288zM1342.004 1099.012h24.792v24.792h-24.792zM1317.004 1118.71h16.102v16.102h-16.102zM1374.671 1130.764h14.333v14.333h-14.333zM1291.149 1139.414h7.737v7.737h-7.737zM1241.423 1110.897h20.7v20.7h-20.7zM1214.643 1141.134h10.028v10.028h-10.028zM929.949 1133.74v13.55h-20.22v-6.66h-11.84v6.66h-6.81v-13.55z" class="cls-1"/>
    <path d="M925.727 1124.069h11.852v12.85h-11.852zM867.232 1125.043h19.884v19.884h-19.884zM951.116 1137.292h10.357v10.357h-10.357zM900.699 1145.458h6v6h-6z" class="cls-1"/>
  </g>
</svg>
